<?xml version="1.0" standalone="no"?>
<!DOCTYPE svg PUBLIC "-//W3C//DTD SVG 1.1//EN" "http://www.w3.org/Graphics/SVG/1.1/DTD/svg11.dtd" >
<!--
2013-9-30: Created.
-->
<svg>
<metadata>
Created by iconfont
</metadata>
<defs>

<font id="uedicon" horiz-adv-x="1024" >
  <font-face
    font-family="uedicon"
    font-weight="500"
    font-stretch="normal"
    units-per-em="1024"
    ascent="896"
    descent="-128"
  />
    <missing-glyph />
    
    <glyph glyph-name="LiRa_bottom" unicode="&#59041;" d="M912.384 71.68H111.616c-16.896 0-30.72 13.824-30.72 30.72s13.824 30.72 30.72 30.72h800.768c16.896 0 30.72-13.824 30.72-30.72s-13.824-30.72-30.72-30.72zM533.504 243.2l400.896 400.896c11.776 11.776 11.776 31.744 0 43.52s-31.744 11.776-43.52 0l-378.88-378.88-378.88 378.88c-11.776 11.776-31.744 11.776-43.52 0s-11.776-31.744 0-43.52l400.896-400.896a29.696 29.696 0 0 1 43.008 0z"  horiz-adv-x="1024" />

    
    <glyph glyph-name="LiRa_also" unicode="&#59042;" d="M512 870.4C243.2 870.4 25.6 652.8 25.6 384s217.6-486.4 486.4-486.4 486.4 217.6 486.4 486.4-217.6 486.4-486.4 486.4z m0-911.36c-234.496 0-424.96 190.464-424.96 424.96s190.464 424.96 424.96 424.96 424.96-190.464 424.96-424.96-190.464-424.96-424.96-424.96zM506.88 57.856c-26.624 0-48.128 21.504-48.128 48.128s21.504 48.128 48.128 48.128 48.128-21.504 48.128-48.128-21.504-48.128-48.128-48.128z m43.52 192.512c0-34.304-8.704-62.464-43.52-62.464s-43.52 28.16-43.52 62.464l-19.456 341.504c0 34.304 28.16 62.464 62.464 62.464s62.464-28.16 62.464-62.464l-18.432-341.504z"  horiz-adv-x="1024" />

    
    <glyph glyph-name="LiRa_apply" unicode="&#59043;" d="M884.224 823.296h-278.016c-39.936 0-72.704-32.768-72.704-72.704v-278.016c0-39.936 32.768-72.704 72.704-72.704h278.016c39.936 0 72.704 32.768 72.704 72.704V751.104c-0.512 39.424-33.28 72.192-72.704 72.192z m11.776-327.68c0-19.456-15.872-34.816-34.816-34.816h-231.936c-19.456 0-34.816 15.872-34.816 34.816V728.064c0 19.456 15.872 34.816 34.816 34.816h231.936c19.456 0 34.816-15.872 34.816-34.816v-232.448zM418.304 823.296H139.776c-39.936 0-72.704-32.768-72.704-72.704v-278.016c0-39.936 32.768-72.704 72.704-72.704h278.016c39.936 0 72.704 32.768 72.704 72.704V751.104c0 39.424-32.768 72.192-72.192 72.192z m11.776-327.68c0-19.456-15.872-34.816-34.816-34.816H162.816C143.36 460.8 128 476.672 128 495.616V728.064c0 19.456 15.872 34.816 34.816 34.816h231.936c19.456 0 34.816-15.872 34.816-34.816v-232.448zM418.304 367.616H139.776c-39.936 0-72.704-32.768-72.704-72.704v-278.016c0-39.936 32.768-72.704 72.704-72.704h278.016c39.936 0 72.704 32.768 72.704 72.704v278.016c0 39.936-32.768 72.704-72.192 72.704z m11.776-327.68c0-19.456-15.872-34.816-34.816-34.816H162.816c-19.456 0-34.816 15.872-34.816 34.816v231.936c0 19.456 15.872 34.816 34.816 34.816h231.936c19.456 0 34.816-15.872 34.816-34.816v-231.936zM884.224 367.616h-278.016c-39.936 0-72.704-32.768-72.704-72.704v-278.016c0-39.936 32.768-72.704 72.704-72.704h278.016c39.936 0 72.704 32.768 72.704 72.704v278.016c-0.512 39.936-33.28 72.704-72.704 72.704z m11.776-327.68c0-19.456-15.872-34.816-34.816-34.816h-231.936c-19.456 0-34.816 15.872-34.816 34.816v231.936c0 19.456 15.872 34.816 34.816 34.816h231.936c19.456 0 34.816-15.872 34.816-34.816v-231.936z"  horiz-adv-x="1024" />

    
    <glyph glyph-name="LiRa_bad" unicode="&#59044;" d="M126.464 385.024v-1.024c0-8.704 7.168-15.36 15.36-15.36H199.68c8.704 0 15.36 7.168 15.36 15.36V757.76c0 8.704-7.168 15.36-15.36 15.36h-35.84c-8.192 0-14.848-6.656-15.36-14.848l-22.016-373.248z m-33.792-78.848h-2.048c-17.408 1.024-30.208 15.872-29.184 32.768l27.648 467.456c1.024 16.384 14.848 29.184 31.232 29.184h126.464c17.408 0 31.232-13.824 31.232-31.232v-467.456c0-17.408-13.824-31.232-31.232-31.232H92.672v0.512z m298.496 470.016c-8.192 0-20.48-6.656-20.48-15.36v-424.96c70.144-59.904 127.488-120.32 161.28-182.784 13.312-24.576 23.04-50.176 29.696-77.824 2.56-10.752 5.12-21.504 7.168-33.28 1.536-7.168 5.632-31.744 4.608-27.648 0.512-4.096 1.536-7.68 2.048-11.776 57.344 6.656 83.968 49.664 83.968 120.32 0 50.176-11.264 103.936-34.304 161.28-15.872 39.936 13.312 83.968 56.832 83.968h182.272c16.896 0 30.72 13.824 30.72 30.72 0 3.072-0.512 5.632-1.024 8.704l-101.888 357.376c-2.048 6.656-7.68 10.752-14.848 10.752H386.048h5.12z m313.344-532.48c12.288-43.52 18.432-84.992 18.432-125.44 0-89.088-39.936-185.856-164.864-185.856-61.952 0-30.72 93.184-81.92 186.368-34.304 62.464-89.6 124.416-166.912 186.88V773.12c0 34.304 27.648 62.464 62.464 62.464h420.864c27.648 0 51.712-18.432 59.904-44.544l107.52-365.056c2.56-8.704 3.584-17.408 3.584-26.624 0-51.712-41.984-93.696-93.696-93.696h-185.856c5.632-13.824 10.24-27.136 14.848-40.448l5.632-21.504z m-6.656 21.504"  horiz-adv-x="1024" />

    
    <glyph glyph-name="LiRa_cancellation" unicode="&#59045;" d="M819.712 691.2c-13.824 14.336-36.864 14.848-51.2 1.024s-9.216-31.232 4.608-46.08l1.024-1.024c141.312-141.312 141.312-382.464 0-523.776s-382.464-141.312-523.776 0-141.824 382.464 0 523.776c14.336 13.824 20.48 31.232 6.144 46.08-13.824 14.336-36.864 14.848-51.2 1.024l-1.024-1.024c-169.984-169.984-169.984-445.44 0-615.424s445.44-169.984 615.424 0 169.984 445.44 0 615.424zM493.568 428.032c-17.92 0-32.768 14.848-32.768 32.768V786.944c0 17.92 14.848 32.768 32.768 32.768s32.768-14.848 32.768-32.768V460.8c0-17.92-14.848-32.768-32.768-32.768z"  horiz-adv-x="1024" />

    
    <glyph glyph-name="LiRa_camera" unicode="&#59046;" d="M606.208 684.544l68.096-93.696c21.504-29.696 62.464-51.2 99.328-51.2h151.04v-456.192H99.84V540.16h150.528c36.864 0 77.312 21.504 98.816 51.2l68.096 93.696h188.928M512 166.4c95.744 0 174.08 77.824 174.08 174.08s-77.824 174.08-174.08 174.08-174.08-77.824-174.08-174.08 78.336-174.08 174.08-174.08m96.768 580.096H415.232c-18.432 0-35.84-8.704-47.104-24.064l-70.656-97.28c-10.752-14.848-28.16-24.064-47.104-24.064H95.744c-32.256 0-57.856-26.112-57.856-57.856v-463.872c0-32.256 26.112-57.856 57.856-57.856h832c32.256 0 57.856 26.112 57.856 57.856V543.232c0 32.256-26.112 57.856-57.856 57.856H773.12c-18.432 0-35.84 8.704-47.104 24.064l-70.656 97.28c-10.24 14.848-27.648 24.064-46.592 24.064zM512 224.768c-64 0-115.712 51.712-115.712 115.712 0 64 51.712 115.712 115.712 115.712s115.712-51.712 115.712-115.712c0-64-51.712-115.712-115.712-115.712zM236.544 690.176H110.592c-15.872 0-29.184-13.824-29.184-30.72s12.8-30.72 29.184-30.72h125.952c15.872 0 29.184 13.824 29.184 30.72s-13.312 30.72-29.184 30.72z"  horiz-adv-x="1024" />

    
    <glyph glyph-name="LiRa_copy" unicode="&#59047;" d="M672.768 636.416h-542.72c-45.056 0-81.92-36.864-81.92-81.92v-542.72c0-45.056 36.864-81.92 81.92-81.92h542.72c45.056 0 81.92 36.864 81.92 81.92v542.72c0 45.056-36.864 81.92-81.92 81.92z m20.48-604.16c0-22.528-18.432-40.96-40.96-40.96h-501.76c-22.528 0-40.96 18.432-40.96 40.96v501.76c0 22.528 18.432 40.96 40.96 40.96h501.76c22.528 0 40.96-18.432 40.96-40.96v-501.76zM566.784 313.856H432.128V449.024c0 16.896-13.824 30.72-30.72 30.72s-30.72-13.824-30.72-30.72v-134.656H236.032c-16.896 0-30.72-13.824-30.72-30.72s13.824-30.72 30.72-30.72h134.656V117.76c0-16.896 13.824-30.72 30.72-30.72s30.72 13.824 30.72 30.72v134.656h134.656c16.896 0 30.72 13.824 30.72 30.72s-13.824 30.72-30.72 30.72zM893.952 838.144h-542.72c-45.056 0-81.92-36.864-81.92-81.92v-41.472c0-16.896 13.824-30.72 30.72-30.72s30.72 13.824 30.72 30.72v20.992c0 22.528 18.432 40.96 40.96 40.96h501.76c22.528 0 40.96-18.432 40.96-40.96v-501.76c0-22.528-18.432-40.96-40.96-40.96h-34.816c-16.384-1.024-29.184-14.336-29.184-30.72s12.8-29.696 29.184-30.72h55.296c45.056 0 81.92 36.864 81.92 81.92v542.72c0 45.056-36.864 81.92-81.92 81.92z"  horiz-adv-x="1024" />

    
    <glyph glyph-name="LiRa_clip" unicode="&#59048;" d="M757.248 774.144c-129.536 97.28-313.344 71.68-410.624-57.856L221.696 550.912c-10.752-14.336-7.68-34.304 6.144-45.056 14.336-10.752 34.304-7.68 45.056 6.144l124.416 165.376c75.264 101.888 219.136 122.88 321.024 47.616s122.88-219.136 47.616-321.024c-0.512-1.024-1.536-1.536-2.048-2.56l-255.488-338.944c-55.296-71.68-158.208-85.504-229.888-30.208-71.168 54.272-84.992 155.648-32.256 227.84L501.76 599.04c32.768 43.52 94.72 52.224 138.24 19.456s52.224-94.72 19.456-138.24l-216.064-286.72c-11.264-14.848-31.744-17.408-46.592-6.656-14.848 11.264-17.408 31.744-6.656 46.592 86.016 115.712 141.312 188.928 164.864 220.672 10.752 14.336 7.68 34.304-6.144 45.056-14.336 10.752-34.304 7.68-45.056-6.144-23.552-31.232-78.336-104.96-164.864-220.672-32.768-42.496-25.088-103.424 17.408-136.704 42.496-32.768 103.424-25.088 136.704 17.408 0.512 0.512 1.024 1.536 1.536 2.048l219.136 290.816c1.024 1.536 1.536 3.072 2.048 4.096 47.616 71.168 32.256 167.424-36.864 219.648-71.68 54.272-173.568 39.936-227.84-32.256l-255.488-338.944c-75.264-100.864-53.76-243.712 47.104-318.976 99.84-74.24 241.152-54.272 316.928 44.544l255.488 338.944c97.28 129.536 71.68 313.344-57.856 411.136z"  horiz-adv-x="1024" />

    
    <glyph glyph-name="LiRa_dal" unicode="&#59049;" d="M609.792 816.128l-452.096-452.096c-13.824-13.824-36.864-13.824-50.688 0s-13.824 36.864 0 50.688l452.608 452.608c13.824 13.824 36.864 13.824 50.688 0 13.824-14.336 13.824-36.864-0.512-51.2zM559.104-88.576l-452.608 452.608c-13.824 13.824-13.824 36.864 0 50.688s36.864 13.824 50.688 0l452.608-452.608c13.824-13.824 13.824-36.864 0-50.688-13.824-14.336-36.352-14.336-50.688 0zM916.992 805.888l-452.096-452.096c-13.824-13.824-36.864-13.824-50.688 0s-13.824 36.864 0 50.688l452.608 452.608c13.824 13.824 36.864 13.824 50.688 0 13.824-14.336 13.824-36.864-0.512-51.2zM866.304-98.816l-452.608 452.608c-13.824 13.824-13.824 36.864 0 50.688s36.864 13.824 50.688 0l452.608-452.608c13.824-13.824 13.824-36.864 0-50.688-13.824-14.336-36.352-14.336-50.688 0z"  horiz-adv-x="1024" />

    
    <glyph glyph-name="LiRa_delete" unicode="&#59050;" d="M66.048 751.104c-20.48 0-36.864-17.92-33.792-38.912 2.048-17.408 17.92-29.696 35.328-29.696h889.344c17.408 0 33.28 12.288 35.328 29.696 2.56 20.992-13.824 38.912-33.792 38.912m-220.16 0v81.92c0 18.944-15.36 34.816-34.816 34.816H313.344c-18.944 0-34.816-15.36-34.816-34.816v-81.92m68.608 0V803.84s0 0.512 0.512 0.512h322.048s0.512 0 0.512-0.512v-52.736M881.664 658.944c-18.944 2.56-30.72-10.752-33.28-29.696l-81.408-665.6H264.192l-81.408 665.6c-2.56 18.944-14.848 31.744-33.28 29.696-18.944-2.56-31.744-19.968-29.696-38.4L204.8-67.072c1.024-6.144 3.584-12.288 7.168-16.896 6.144-9.728 16.896-15.872 28.672-15.872h548.864c12.288 0 22.528 6.144 28.672 15.872 3.584 4.608 6.656 10.24 7.168 16.896l84.992 687.616c3.072 18.432-10.24 35.84-28.672 38.4zM415.744 167.936c-16.896 0-30.72 13.824-30.72 30.72V486.912c0 16.896 13.824 30.72 30.72 30.72s30.72-13.824 30.72-30.72v-288.768c0-16.384-13.824-30.208-30.72-30.208zM614.912 167.936c-16.896 0-30.72 13.824-30.72 30.72V486.912c0 16.896 13.824 30.72 30.72 30.72s30.72-13.824 30.72-30.72v-288.768c0-16.384-13.824-30.208-30.72-30.208z"  horiz-adv-x="1024" />

    
    <glyph glyph-name="LiRa_approval" unicode="&#59051;" d="M796.672 519.168m-30.72 0a30.72 30.72 0 1 1 61.44 0 30.72 30.72 0 1 1-61.44 0ZM438.272-25.088m-30.72 0a30.72 30.72 0 1 1 61.44 0 30.72 30.72 0 1 1-61.44 0ZM522.752 582.144H228.352c-16.384 0-29.184 13.312-29.184 29.184v2.56c0 16.384 13.312 29.184 29.184 29.184h294.4c16.384 0 29.184-13.312 29.184-29.184v-2.56c0-16.384-13.312-29.184-29.184-29.184zM471.552 384.512H228.352c-16.384 0-29.184 13.312-29.184 29.184v2.56c0 16.384 13.312 29.696 29.184 29.696h243.2c16.384 0 29.184-13.312 29.184-29.696v-2.56c0-15.872-13.312-29.184-29.184-29.184zM407.552 196.608h-179.2c-16.384 0-29.184 13.312-29.184 29.696v2.56c0 16.384 13.312 29.184 29.184 29.184h179.2c16.384 0 29.184-13.312 29.184-29.184v-2.56c0-16.384-13.312-29.696-29.184-29.696zM861.184 137.216H803.84c20.992 58.88 57.344 166.4 57.344 180.224 0 76.288-61.952 138.752-138.752 138.752C646.144 456.192 583.68 394.24 583.68 317.44c0-17.408 34.304-120.832 56.832-180.224H583.68c-46.08 0-82.944-37.376-82.944-82.944v-27.648c0-46.08 37.376-82.944 82.944-82.944h276.992c46.08 0 82.944 37.376 82.944 82.944v27.648c0.512 46.08-36.864 82.944-82.432 82.944z m-192 85.504c-16.896 48.128-29.696 90.624-29.696 94.72 0 46.08 37.376 82.944 82.944 82.944 46.08 0 82.944-37.376 82.944-82.944 0-5.632-45.056-137.216-60.928-180.224h-44.544c-6.656 17.408-18.944 51.712-30.72 85.504z m219.648-196.096c0-15.36-12.288-27.648-27.648-27.648h-276.992c-15.36 0-27.648 12.288-27.648 27.648v27.648c0 15.36 12.288 27.648 27.648 27.648h276.992c15.36 0 27.648-12.288 27.648-27.648v-27.648zM438.272 5.632l-254.976-1.024c-22.528 0-41.472 19.968-41.472 42.496V721.408c0 22.528 18.432 40.96 40.96 40.96h542.72c22.528 0 40.96-18.432 40.96-40.96v-198.144h61.44V742.912c0 45.056-36.864 81.92-81.92 81.92h-583.68c-45.056 0-81.92-36.864-81.92-81.92v-716.8c0-45.056 36.864-81.92 81.92-81.92h276.992l-1.024 61.44z"  horiz-adv-x="1024" />

    
    <glyph glyph-name="LiRa_check" unicode="&#59052;" d="M512 870.4C243.2 870.4 25.6 652.8 25.6 384s217.6-486.4 486.4-486.4 486.4 217.6 486.4 486.4-217.6 486.4-486.4 486.4z m0-911.36c-234.496 0-424.96 190.464-424.96 424.96s190.464 424.96 424.96 424.96 424.96-190.464 424.96-424.96-190.464-424.96-424.96-424.96zM764.928 561.664c-15.36 8.192-34.304 3.072-44.544-10.752l-236.032-314.88h-0.512l-188.416 136.704c-13.824 10.24-33.792 9.216-46.08-3.072-14.336-14.848-11.776-38.4 4.608-49.664L471.04 162.304c14.848-10.752 36.352-7.68 47.616 7.168v0.512l0.512 0.512 257.024 342.528c11.776 15.36 7.168 38.4-11.264 48.64z"  horiz-adv-x="1024" />

    
    <glyph glyph-name="LiRa_edit" unicode="&#59053;" d="M941.568 674.304l-82.944-82.432-45.056-45.056-367.616-366.592-148.992-43.008c-16.896-5.12-32.768 10.752-28.16 28.16l44.032 149.504L807.936 808.96c4.096 4.096 9.216 6.144 14.336 6.144 4.096 0 7.68-1.536 10.24-4.096l111.104-111.104c6.656-7.168 5.12-17.408-2.048-25.6z m-171.52-82.432l-45.056 45.056L368.64 281.6l-18.432-62.976 62.976 17.92 356.864 355.328z m96.256 96.256l-45.056 45.056-51.2-51.2 45.056-45.056 51.2 51.2zM890.88 373.248v-262.144c0-56.32-46.08-102.4-102.4-102.4H235.52c-56.32 0-102.4 46.08-102.4 102.4V652.288c0 56.32 46.08 102.4 102.4 102.4h271.36c16.896 0 30.72 13.824 30.72 30.72V788.48c0 16.896-13.824 30.72-30.72 30.72H225.28c-84.48 0-153.6-69.12-153.6-153.6v-563.2c0-84.48 69.12-153.6 153.6-153.6h573.44c84.48 0 153.6 69.12 153.6 153.6v270.848c0 16.896-13.824 30.72-30.72 30.72s-30.72-13.824-30.72-30.72z"  horiz-adv-x="1024" />

    
    <glyph glyph-name="LiRa_calendar" unicode="&#59054;" d="M371.712 736.768h278.016v-61.44H371.712zM852.48 736.768h-90.624v-61.44h80.384c46.592 0 84.48-37.888 84.48-84.48v-491.008c0-46.592-37.888-84.48-84.48-84.48h-660.48c-46.592 0-84.48 37.888-84.48 84.48V590.336c0 46.592 37.888 84.48 84.48 84.48h83.456v61.44H171.52C96.768 736.768 35.84 675.328 35.84 600.576v-511.488c0-74.752 60.928-135.68 135.68-135.68h680.448c74.752 0 135.68 60.928 135.68 135.68V600.576c0.512 74.752-60.416 136.192-135.168 136.192zM316.416 589.312c-16.896 0-30.72 13.824-30.72 30.72v163.84c0 16.896 13.824 30.72 30.72 30.72s30.72-13.824 30.72-30.72v-163.84c0-16.896-13.824-30.72-30.72-30.72zM705.536 589.312c-16.896 0-30.72 13.824-30.72 30.72v163.84c0 16.896 13.824 30.72 30.72 30.72s30.72-13.824 30.72-30.72v-163.84c0-16.896-13.824-30.72-30.72-30.72zM741.376 394.752h-471.04c-16.896 0-30.72 13.824-30.72 30.72s13.824 30.72 30.72 30.72h471.04c16.896 0 30.72-13.824 30.72-30.72s-13.824-30.72-30.72-30.72zM743.936 223.232h-471.04c-16.896 0-30.72 13.824-30.72 30.72s13.824 30.72 30.72 30.72h471.04c16.896 0 30.72-13.824 30.72-30.72s-13.824-30.72-30.72-30.72z"  horiz-adv-x="1024" />

    
    <glyph glyph-name="LiRa_dau" unicode="&#59055;" d="M944.128 286.208L492.032 738.304c-13.824 13.824-13.824 36.864 0 50.688s36.864 13.824 50.688 0l452.608-452.608c13.824-13.824 13.824-36.864 0-50.688-14.336-13.824-36.864-13.824-51.2 0.512zM39.424 336.896l452.608 452.608c13.824 13.824 36.864 13.824 50.688 0s13.824-36.864 0-50.688l-452.608-452.608c-13.824-13.824-36.864-13.824-50.688 0-14.336 13.824-14.336 36.352 0 50.688zM933.888-20.992L481.792 431.104c-13.824 13.824-13.824 36.864 0 50.688s36.864 13.824 50.688 0l452.608-452.608c13.824-13.824 13.824-36.864 0-50.688-14.336-13.824-36.864-13.824-51.2 0.512zM29.184 29.696l452.608 452.608c13.824 13.824 36.864 13.824 50.688 0s13.824-36.864 0-50.688l-452.608-452.608c-13.824-13.824-36.864-13.824-50.688 0-14.336 13.824-14.336 36.352 0 50.688z"  horiz-adv-x="1024" />

    
    <glyph glyph-name="LiRa_dar" unicode="&#59056;" d="M414.208-48.128l452.096 452.096c13.824 13.824 36.864 13.824 50.688 0s13.824-36.864 0-50.688l-452.608-452.608c-13.824-13.824-36.864-13.824-50.688 0-13.824 14.336-13.824 36.864 0.512 51.2zM464.896 856.576l452.608-452.608c13.824-13.824 13.824-36.864 0-50.688s-36.864-13.824-50.688 0L414.208 805.888c-13.824 13.824-13.824 36.864 0 50.688 13.824 14.336 36.352 14.336 50.688 0zM107.008-37.888l452.096 452.096c13.824 13.824 36.864 13.824 50.688 0s13.824-36.864 0-50.688l-452.608-452.608c-13.824-13.824-36.864-13.824-50.688 0-13.824 14.336-13.824 36.864 0.512 51.2zM157.696 866.816l452.608-452.608c13.824-13.824 13.824-36.864 0-50.688s-36.864-13.824-50.688 0L107.008 816.128c-13.824 13.824-13.824 36.864 0 50.688 13.824 14.336 36.352 14.336 50.688 0z"  horiz-adv-x="1024" />

    
    <glyph glyph-name="LiRa_browser" unicode="&#59057;" d="M912.384 661.504c-10.752 15.36-22.528 30.208-34.816 44.544C788.48 807.424 657.408 871.424 512 871.424S235.52 807.424 146.432 706.048c-12.288-14.336-24.064-29.184-34.816-44.544C57.344 582.656 25.6 487.424 25.6 385.024c0-99.328 29.696-191.488 80.896-268.8 10.24-15.872 22.016-30.72 33.792-45.056 85.504-101.376 211.456-166.912 353.28-172.032 6.144-1.536 12.8-2.048 18.944-2.048 6.656 0 13.312 0.512 19.456 2.048 140.8 5.632 265.728 71.168 351.232 172.032 12.288 14.336 23.552 29.696 33.792 45.056 51.2 76.8 80.896 169.472 80.896 268.8 0.512 102.4-31.232 197.632-85.504 276.48z m23.552-248.32h-218.112c-1.536 54.784-6.656 107.52-15.36 155.648 59.904 13.824 113.152 33.792 157.696 58.368 43.52-61.44 70.656-134.656 75.776-214.016z m-407.04-453.12c-5.632 0-11.264-0.512-16.896-0.512-5.12 0-10.24 0-14.848 0.512-51.712 13.312-90.624 91.136-112.128 202.752 39.936 5.632 82.944 8.704 126.976 8.704 45.056 0 88.064-3.072 128.512-8.704-20.992-111.616-59.904-188.928-111.616-202.752z m-16.896 273.92c-47.616 0-93.184-3.584-136.192-10.752-5.12 39.936-8.192 83.456-9.216 128.512h292.864c-1.024-45.056-4.096-88.576-9.216-128.512-44.032 6.656-90.112 10.752-138.24 10.752z m-145.408 179.2c1.024 51.2 4.608 100.352 11.264 144.896 42.496-6.656 87.552-10.24 134.656-10.24s92.672 3.584 136.192 10.752c6.144-45.056 10.24-93.696 11.264-145.408H366.592z m146.432 394.752c57.344 0 100.352-75.264 124.928-189.44-39.936-5.632-81.92-8.704-125.44-8.704-43.008 0-84.48 3.072-123.904 8.192 23.552 114.688 67.072 189.952 124.416 189.952z m311.808-135.168c-37.376-18.944-82.944-34.304-134.144-45.056-16.896 68.096-40.448 125.952-68.608 167.424 78.848-20.992 148.992-64 202.752-122.368zM403.968 796.16C375.296 754.176 351.744 696.32 334.848 627.712c-51.712 10.752-97.792 26.112-135.68 45.056 54.272 58.88 124.928 102.4 204.8 123.392z m-240.64-168.448C208.384 602.624 262.144 582.144 322.56 568.32c-8.192-48.64-13.824-100.864-14.848-155.648H88.064c5.12 79.872 32.256 153.088 75.264 215.04z m-74.752-275.968h219.136c1.536-48.64 5.632-95.232 12.8-139.264-61.952-14.336-117.248-35.328-162.816-61.952-38.912 58.88-63.488 127.488-69.12 201.216z m103.424-246.272c38.4 20.48 86.016 36.864 139.264 48.128 16.384-72.704 40.448-134.144 69.632-179.2-81.92 22.528-154.112 68.608-208.896 131.072z m432.64-130.56c29.184 44.544 52.736 105.984 69.12 178.176 52.736-11.264 99.84-27.648 137.728-48.128-53.76-61.44-125.44-107.52-206.848-130.048z m242.176 176.128c-45.056 26.112-99.84 47.104-161.28 61.44 7.168 44.032 11.264 90.624 12.8 139.264h217.6c-6.144-73.728-30.72-142.336-69.12-200.704z"  horiz-adv-x="1024" />

    
    <glyph glyph-name="LiRa_column" unicode="&#59058;" d="M135.68 660.48m-64 0a64 64 0 1 1 128 0 64 64 0 1 1-128 0ZM916.48 629.76H276.48c-16.896 0-30.72 13.824-30.72 30.72s13.824 30.72 30.72 30.72h640c16.896 0 30.72-13.824 30.72-30.72s-13.824-30.72-30.72-30.72zM135.68 399.36m-64 0a64 64 0 1 1 128 0 64 64 0 1 1-128 0ZM916.48 368.64H276.48c-16.896 0-30.72 13.824-30.72 30.72s13.824 30.72 30.72 30.72h640c16.896 0 30.72-13.824 30.72-30.72s-13.824-30.72-30.72-30.72zM140.8 107.52m-64 0a64 64 0 1 1 128 0 64 64 0 1 1-128 0ZM921.6 76.8H281.6c-16.896 0-30.72 13.824-30.72 30.72s13.824 30.72 30.72 30.72h640c16.896 0 30.72-13.824 30.72-30.72s-13.824-30.72-30.72-30.72z"  horiz-adv-x="1024" />

    
    <glyph glyph-name="LiRa_cloud-upload" unicode="&#59059;" d="M815.104 631.296C746.496 798.72 555.008 878.592 387.584 809.984c-80.896-33.28-145.408-97.792-178.688-178.688C97.792 605.184 19.968 505.856 20.48 392.192c0-135.68 110.08-245.76 245.76-245.76h93.696c17.92 0 32.768 14.848 32.768 32.768s-14.848 27.648-32.768 27.648H266.24c-99.328 0-185.344 86.016-185.344 185.344-0.512 88.576 64 169.472 152.064 183.296l19.456 3.072 6.144 18.432c36.352 105.984 141.312 177.152 252.928 177.152 112.128 0 216.576-71.168 252.928-177.152l6.656-18.432 19.456-3.072c87.552-13.312 152.576-94.208 152.064-183.296 0-99.328-86.016-185.344-185.344-185.344h-99.84c-17.92 0-32.768-9.728-32.768-27.648s14.848-32.768 32.768-32.768H757.76c135.68 0 245.76 110.08 245.76 245.76 0.512 113.664-77.312 212.992-188.416 239.104zM653.312 316.416c13.824-11.264 34.816-9.216 46.08 4.608s9.216 34.816-4.608 46.08l-161.792 132.608c-12.288 9.728-29.696 9.728-41.472 0l-162.816-133.12c-13.824-11.264-15.872-32.256-4.608-46.08 6.144-7.68 15.36-11.776 25.088-11.776 7.68 0 14.848 2.56 20.992 7.68l109.568 89.6v-438.784c0-17.92 14.848-32.768 32.768-32.768 17.92 0 32.768 14.848 32.768 32.768V404.992l108.032-88.576z"  horiz-adv-x="1024" />

    
    <glyph glyph-name="LiRa_enter" unicode="&#59060;" d="M512 870.4C243.2 870.4 25.6 652.8 25.6 384s217.6-486.4 486.4-486.4 486.4 217.6 486.4 486.4-217.6 486.4-486.4 486.4z m0-911.36c-234.496 0-424.96 190.464-424.96 424.96s190.464 424.96 424.96 424.96 424.96-190.464 424.96-424.96-190.464-424.96-424.96-424.96zM682.496 405.504L425.472 662.528c-11.776 11.776-31.744 11.776-43.52 0s-11.776-31.744 0-43.52l235.52-235.52-235.52-235.52c-11.776-11.776-11.776-31.744 0-43.52s31.744-11.776 43.52 0l257.024 257.024c12.288 12.8 12.288 32.256 0 44.032z"  horiz-adv-x="1024" />

    
    <glyph glyph-name="LiRa_cross" unicode="&#59061;" d="M856.064 83.456L555.52 384l300.544 300.544c11.776 11.776 11.776 31.744 0 43.52s-31.744 11.776-43.52 0L512 427.52 211.456 728.064c-11.776 11.776-31.744 11.776-43.52 0s-11.776-31.744 0-43.52L468.48 384l-300.544-300.544c-11.776-11.776-11.776-31.744 0-43.52s31.744-11.776 43.52 0l300.544 300.544 300.544-300.544c11.776-11.776 31.744-11.776 43.52 0 11.776 12.288 11.776 31.744 0 43.52z"  horiz-adv-x="1024" />

    
    <glyph glyph-name="LiRa_feedback" unicode="&#59062;" d="M842.24 571.392h-31.744V821.248c0 16.896-13.824 30.208-30.208 30.208H231.424c-16.896 0-30.208-13.824-30.208-30.208v-249.344h-19.456C107.008 571.392 46.08 510.464 46.08 435.712v-383.488c0-74.752 60.928-135.68 135.68-135.68h659.968c74.752 0 135.68 60.928 135.68 135.68V435.712c0.512 74.752-60.416 135.68-135.168 135.68z m-10.24-61.44c11.264 0 22.016-2.048 31.744-6.144l-53.248-38.912v45.056h21.504zM262.656 424.448V791.04h486.4v-366.592c0-1.536 0-2.56 0.512-4.096l-245.76-179.712-241.152 180.736v3.072zM192 509.952h9.216v-43.008l-46.08 34.304c11.264 5.632 23.552 8.704 36.864 8.704zM916.48 62.464c0-46.592-37.888-84.48-84.48-84.48h-640c-46.592 0-84.48 37.888-84.48 84.48V425.472c0 10.752 2.048 21.504 6.144 30.72l366.592-279.552c10.24-10.24 26.112-11.776 37.888-4.096 3.584 1.536 7.168 3.584 10.24 6.656l379.392 282.112c5.12-10.752 8.192-23.04 8.192-36.352v-362.496zM349.184 639.488h315.392c16.896 0 30.208 13.824 30.208 30.208s-13.824 30.208-30.208 30.208H349.184c-16.896 0-30.208-13.824-30.208-30.208s13.824-30.208 30.208-30.208zM598.016 537.088c0 16.896-13.824 30.208-30.208 30.208H354.304c-16.896 0-30.208-13.824-30.208-30.208S337.92 506.88 354.304 506.88h212.992c16.896-0.512 30.72 13.312 30.72 30.208z"  horiz-adv-x="1024" />

    
    <glyph glyph-name="LiRa_down" unicode="&#59063;" d="M84.992 635.392l452.608-452.608c13.824-13.824 13.824-36.864 0-50.688s-36.864-13.824-50.688 0L34.304 584.704c-13.824 13.824-13.824 36.864 0 50.688 13.824 14.336 36.352 14.336 50.688 0zM989.696 584.704l-452.608-452.608c-13.824-13.824-36.864-13.824-50.688 0s-13.824 36.864 0 50.688l452.608 452.608c13.824 13.824 36.864 13.824 50.688 0 14.336-13.824 14.336-36.352 0-50.688z"  horiz-adv-x="1024" />

    
    <glyph glyph-name="LiRa_file" unicode="&#59064;" d="M699.904 830.464H374.784c-56.832 0-102.912-46.08-102.912-102.912v-22.528H220.16c-56.832 0-102.912-46.08-102.912-102.912v-566.784c0-56.832 46.08-102.912 102.912-102.912h437.76c56.832 0 102.912 46.08 102.912 102.912v22.528h45.056c56.832 0 102.912 46.08 102.912 102.912V624.64l-208.896 205.824z m-3.072-787.456c0-28.672-23.04-51.712-51.712-51.712H227.84c-28.672 0-51.712 23.04-51.712 51.712V594.432c0 28.672 23.04 51.712 51.712 51.712H271.36v-484.864c0-56.832 46.08-102.912 102.912-102.912H696.32v-15.36h0.512z m153.088 130.56c0-28.672-23.04-51.712-51.712-51.712H382.464c-28.672 0-51.712 23.04-51.712 51.712V719.872c0 28.672 23.04 51.712 51.712 51.712h230.4v-132.096c0-56.832 46.08-108.032 102.912-108.032H849.92v-357.888z m-120.832 416.768c-28.672 0-51.712 23.04-51.712 51.712V768l83.968-89.088L849.92 590.336h-120.832zM413.696 382.976c0-16.896 14.336-30.72 32.256-30.72H742.4c17.92 0 32.256 13.824 32.256 30.72s-14.336 30.72-32.256 30.72H445.44c-17.408 0-31.744-13.824-31.744-30.72zM741.888 291.328H445.44c-17.92 0-32.256-13.824-32.256-30.72s14.336-30.72 32.256-30.72h296.448c17.92 0 32.256 13.824 32.256 30.72s-14.336 30.72-32.256 30.72z"  horiz-adv-x="1024" />

    
    <glyph glyph-name="LiRa_dialogue" unicode="&#59065;" d="M166.4 811.52C91.648 811.52 30.72 750.592 30.72 675.84v-454.144c0-80.896 66.56-147.456 147.456-147.456H389.12c3.584 0 6.656-1.536 8.704-4.096l91.648-104.96c11.264-12.8 31.232-12.288 41.984 0.512l84.992 103.936c2.048 2.56 5.632 4.096 9.216 4.096h220.672c80.896 0 147.456 66.56 147.456 147.456V675.84c0 74.752-60.928 135.68-135.68 135.68m-10.752-61.44c46.592 0 84.48-37.888 84.48-84.48v-433.664c0-52.736-43.52-96.256-96.256-96.256h-229.376c-6.144 0-11.776-2.56-15.872-7.168l-68.608-81.92c-5.632-7.168-16.384-7.168-22.528 0l-70.656 82.432c-4.096 4.608-9.728 7.168-15.36 7.168H188.416c-52.736 0-96.256 43.52-96.256 96.256V665.6c0 46.592 37.888 84.48 84.48 84.48M256 427.52m-46.08 0a46.08 46.08 0 1 1 92.16 0 46.08 46.08 0 1 1-92.16 0ZM512 432.64m-46.08 0a46.08 46.08 0 1 1 92.16 0 46.08 46.08 0 1 1-92.16 0ZM768 432.64m-46.08 0a46.08 46.08 0 1 1 92.16 0 46.08 46.08 0 1 1-92.16 0Z"  horiz-adv-x="1024" />

    
    <glyph glyph-name="LiRa_home" unicode="&#59066;" d="M486.4 850.944L45.056 409.6c-13.312-13.312-13.312-34.816 0-48.128s34.816-8.192 48.128 5.12l417.792 417.792 417.792-417.792c13.312-13.312 34.816-18.432 48.128-5.12 13.312 13.312 13.312 34.816 0 48.128L535.04 850.944c-13.312 13.312-35.328 13.312-48.64 0zM845.824 344.064c-18.944 0-29.184-15.36-29.184-34.304v-339.968h-141.824V222.208c0 18.432-14.848 33.28-33.28 33.28H379.904c-18.432 0-33.28-14.848-33.28-33.28V-29.696H204.8v339.968c0 18.944-10.24 34.304-29.184 34.304s-34.304-15.36-34.304-34.304v-369.152c0-18.944 15.36-34.304 34.304-34.304h199.68c18.944 0 34.304 15.36 34.304 34.304v250.88h201.728v-250.88c0-18.944 15.36-34.304 34.304-34.304h199.68c18.944 0 34.304 15.36 34.304 34.304v369.152c0 18.432-15.36 33.792-33.792 33.792zM954.368 795.136h-114.176c-18.944 0-35.328-14.336-35.84-33.28-0.512-19.456 14.848-30.208 34.304-30.208h86.528s0.512 0 0.512-0.512v-90.112c0-18.432 15.872-33.28 33.792-30.72 16.384 2.56 29.184 16.896 29.184 33.792V760.832c0.512 18.944-15.36 34.304-34.304 34.304z"  horiz-adv-x="1024" />

    
    <glyph glyph-name="LiRa_comment" unicode="&#59067;" d="M512 842.752c-265.728 0-481.28-184.32-481.28-412.16 0-186.368 144.384-344.064 343.04-394.752 29.184-7.68 80.896-62.464 112.128-98.304 13.824-15.872 38.4-15.872 52.224 0.512 29.696 35.84 78.336 89.6 105.984 96.256 201.728 49.152 349.696 207.872 349.696 396.288-0.512 227.328-216.064 412.16-481.792 412.16z m114.688-740.864c-24.064-5.632-66.56-51.2-92.672-80.896-11.776-13.824-33.28-13.824-45.568-0.512-27.136 30.208-72.192 76.8-97.792 82.944-173.056 43.008-299.008 175.616-299.008 332.8C92.16 627.712 280.064 783.36 512 783.36s419.84-155.648 419.84-347.136c0-158.72-129.024-292.864-305.152-334.336zM281.6 435.712m-61.44 0a61.44 61.44 0 1 1 122.88 0 61.44 61.44 0 1 1-122.88 0ZM512 435.712m-61.44 0a61.44 61.44 0 1 1 122.88 0 61.44 61.44 0 1 1-122.88 0ZM732.16 435.712m-61.44 0a61.44 61.44 0 1 1 122.88 0 61.44 61.44 0 1 1-122.88 0Z"  horiz-adv-x="1024" />

    
    <glyph glyph-name="LiRa_data" unicode="&#59068;" d="M579.584 870.4v-418.816H998.4C998.4 683.008 811.008 870.4 579.584 870.4zM935.936 399.36H527.36V804.352c0 18.432-9.728 38.912-28.672 38.912-261.12 0-473.088-211.456-473.088-472.576S237.568-102.4 498.688-102.4s473.088 206.848 473.088 467.968v5.12c-0.512 18.432-16.384 28.672-35.84 28.672z m-437.248-439.296c-223.744 0-410.624 186.368-410.624 410.624 0 212.48 168.448 391.68 376.832 409.088V336.896h437.76c-17.408-208.384-191.488-376.832-403.968-376.832z"  horiz-adv-x="1024" />

    
    <glyph glyph-name="LiRa_enlarge" unicode="&#59069;" d="M437.76 818.176c-203.776 0-368.64-164.864-368.64-368.64s164.864-368.64 368.64-368.64 368.64 164.864 368.64 368.64-164.864 368.64-368.64 368.64z m0-673.28C269.824 144.896 133.12 281.6 133.12 449.536c0 168.448 136.192 304.64 304.64 304.64S742.4 617.984 742.4 449.536c0-167.936-136.192-304.64-304.64-304.64zM893.44-39.936l-229.888 229.888c-13.824 13.824-13.824 36.864 0 50.688s36.864 13.824 50.688 0l229.888-229.888c13.824-13.824 13.824-36.864 0-50.688s-36.864-13.824-50.688 0zM565.248 470.528H463.36V572.416c0 16.896-13.824 30.72-30.72 30.72s-30.72-13.824-30.72-30.72v-101.888H300.032c-16.896 0-30.72-13.824-30.72-30.72s13.824-30.72 30.72-30.72h101.888V307.2c0-16.896 13.824-30.72 30.72-30.72s30.72 13.824 30.72 30.72V409.088h101.888c16.896 0 30.72 13.824 30.72 30.72s-13.824 30.72-30.72 30.72z"  horiz-adv-x="1024" />

    
    <glyph glyph-name="LiRa_right" unicode="&#59070;" d="M260.608-43.008L713.216 409.6c13.824 13.824 36.864 13.824 50.688 0s13.824-36.864 0-50.688l-452.608-452.608c-13.824-13.824-36.864-13.824-50.688 0-14.336 13.824-14.336 36.352 0 50.688zM311.296 861.696l452.608-452.608c13.824-13.824 13.824-36.864 0-50.688s-36.864-13.824-50.688 0L260.608 811.008c-13.824 13.824-13.824 36.864 0 50.688 13.824 14.336 36.352 14.336 50.688 0z"  horiz-adv-x="1024" />

    
    <glyph glyph-name="LiRa_narrow" unicode="&#59071;" d="M437.76 818.176c-203.776 0-368.64-164.864-368.64-368.64s164.864-368.64 368.64-368.64 368.64 164.864 368.64 368.64-164.864 368.64-368.64 368.64z m0-673.28C269.824 144.896 133.12 281.6 133.12 449.536c0 168.448 136.192 304.64 304.64 304.64S742.4 617.984 742.4 449.536c0-167.936-136.192-304.64-304.64-304.64zM893.44-39.936l-229.888 229.888c-13.824 13.824-13.824 36.864 0 50.688s36.864 13.824 50.688 0l229.888-229.888c13.824-13.824 13.824-36.864 0-50.688s-36.864-13.824-50.688 0zM463.36 470.528h101.888c16.896 0 30.72-13.824 30.72-30.72s-13.824-30.72-30.72-30.72H300.032c-16.896 0-30.72 13.824-30.72 30.72s13.824 30.72 30.72 30.72h163.328z"  horiz-adv-x="1024" />

    
    <glyph glyph-name="LiRa_form" unicode="&#59072;" d="M788.48 46.08h122.88v122.88h-122.88v-122.88z m-337.92 0h122.88v122.88H450.56v-122.88z m-20.48 184.32h163.84c22.528 0 40.96-18.432 40.96-40.96v-163.84c0-22.528-18.432-40.96-40.96-40.96H430.08c-22.528 0-40.96 18.432-40.96 40.96v163.84c0 22.528 18.432 40.96 40.96 40.96z m-317.44-184.32h122.88v122.88H112.64v-122.88zM450.56 599.04h122.88V721.92H450.56v-122.88z m30.72-184.32V537.6H430.08c-22.528 0-40.96 18.432-40.96 40.96V742.4c0 22.528 18.432 40.96 40.96 40.96h163.84c22.528 0 40.96-18.432 40.96-40.96v-163.84c0-22.528-18.432-40.96-40.96-40.96h-51.2v-122.88h307.2c16.896 0 30.72-13.824 30.72-30.72v-153.6h51.2c22.528 0 40.96-18.432 40.96-40.96v-163.84c0-22.528-18.432-40.96-40.96-40.96h-163.84c-22.528 0-40.96 18.432-40.96 40.96v163.84c0 22.528 18.432 40.96 40.96 40.96h51.2v122.88H204.8v-122.88h51.2c22.528 0 40.96-18.432 40.96-40.96v-163.84c0-22.528-18.432-40.96-40.96-40.96H92.16c-22.528 0-40.96 18.432-40.96 40.96v163.84c0 22.528 18.432 40.96 40.96 40.96h51.2v153.6c0 16.896 13.824 30.72 30.72 30.72h307.2z"  horiz-adv-x="1024" />

    
    <glyph glyph-name="LiRa_location" unicode="&#59073;" d="M512 803.84c-231.936 0-419.84-187.904-419.84-419.84s187.904-419.84 419.84-419.84 419.84 187.904 419.84 419.84-187.904 419.84-419.84 419.84z m0-778.24c-198.144 0-358.4 160.256-358.4 358.4s160.256 358.4 358.4 358.4 358.4-160.256 358.4-358.4-160.256-358.4-358.4-358.4zM512 384m-56.32 0a56.32 56.32 0 1 1 112.64 0 56.32 56.32 0 1 1-112.64 0ZM512 670.72c-16.896 0-30.72 13.824-30.72 30.72V844.8c0 16.896 13.824 30.72 30.72 30.72s30.72-13.824 30.72-30.72v-143.36c0-16.896-13.824-30.72-30.72-30.72zM512-107.52c-16.896 0-30.72 13.824-30.72 30.72v143.36c0 16.896 13.824 30.72 30.72 30.72s30.72-13.824 30.72-30.72v-143.36c0-16.896-13.824-30.72-30.72-30.72zM20.48 384c0 16.896 13.824 30.72 30.72 30.72h143.36c16.896 0 30.72-13.824 30.72-30.72s-13.824-30.72-30.72-30.72H51.2c-16.896 0-30.72 13.824-30.72 30.72zM798.72 389.12c0 16.896 13.824 30.72 30.72 30.72h143.36c16.896 0 30.72-13.824 30.72-30.72s-13.824-30.72-30.72-30.72h-143.36c-16.896 0-30.72 13.824-30.72 30.72z"  horiz-adv-x="1024" />

    
    <glyph glyph-name="LiRa_information" unicode="&#59074;" d="M842.24 752.64h-660.48C107.008 752.64 46.08 691.712 46.08 616.96v-465.408C46.08 76.288 107.008 15.36 181.76 15.36h659.968c74.752 0 135.68 60.928 135.68 135.68v465.92C977.92 691.712 916.992 752.64 842.24 752.64z m-650.24-61.44h639.488c11.264 0 22.016-2.048 31.744-6.144l-359.936-334.848-348.16 332.288c11.264 5.632 23.552 8.704 36.864 8.704zM916.48 161.28c0-46.592-37.888-84.48-84.48-84.48h-640c-46.592 0-84.48 37.888-84.48 84.48v445.44c0 10.752 2.048 21.504 6.144 30.72l366.592-351.232c10.24-10.24 26.112-11.776 37.888-4.096 3.584 1.536 7.168 3.584 10.24 6.656l379.392 353.792c5.12-10.752 8.192-23.04 8.192-36.352l0.512-444.928z"  horiz-adv-x="1024" />

    
    <glyph glyph-name="LiRa_fabulous" unicode="&#59075;" d="M126.464 382.976l22.016-373.76c0.512-8.192 7.168-14.848 15.36-14.848h35.84c8.704 0 15.36 7.168 15.36 15.36v373.76c0 8.704-7.168 15.36-15.36 15.36H142.336c-8.704 0-15.36-7.168-15.36-15.36-0.512 0-0.512 0-0.512-0.512z m-33.792 78.848h153.6c17.408 0 31.232-13.824 31.232-31.232v-467.456c0-17.408-13.824-31.232-31.232-31.232H120.32c-16.384 0-30.208 12.8-31.232 29.184L61.44 429.056c-1.024 17.408 12.288 31.744 29.184 32.768h2.048z m293.376-470.016h391.168c6.656 0 12.8 4.608 14.848 10.752l101.888 357.376c1.024 2.56 1.024 5.632 1.024 8.704 0 16.896-13.824 30.72-30.72 30.72h-182.272c-43.008 0-72.704 43.52-56.832 83.968 23.04 57.856 34.304 111.616 34.304 161.28 0 70.656-26.624 113.152-83.968 120.32-1.024-4.096-1.536-7.68-2.048-11.776 1.024 4.608-3.584-20.48-4.608-27.648-2.048-11.776-4.608-22.528-7.168-33.28-7.168-27.648-16.384-53.248-29.696-77.824C497.664 551.936 440.32 491.52 370.688 431.616v-424.96c0-8.192 11.776-15.36 20.48-15.36h-5.12z m311.808 510.976c-4.096-13.312-9.216-27.136-14.848-40.448h185.856c51.712 0 93.696-41.984 93.696-93.696 0-8.704-1.024-17.92-3.584-26.624l-107.52-365.056c-7.68-26.624-32.256-44.544-59.904-44.544H371.2c-34.304 0-62.464 27.648-62.464 62.464V462.336c77.312 62.464 132.608 124.416 166.912 186.88 51.2 93.696 19.968 186.368 81.92 186.368 124.928 0 164.864-96.768 164.864-185.856 0-40.448-6.144-81.92-18.432-125.44l-6.144-21.504z m0 0"  horiz-adv-x="1024" />

    
    <glyph glyph-name="LiRa_screen" unicode="&#59076;" d="M589.312-18.944v399.36c0 6.656 3.584 13.312 6.656 19.968l265.216 386.048H166.4l265.216-386.048c3.584-6.656 6.656-13.312 6.656-19.968V81.92l151.04-100.864z m56.832 10.24c0-36.864-30.208-67.072-67.072-67.072-13.312 0-26.624 3.584-40.448 13.312l-147.456 110.592c-10.24 6.656-13.312 16.896-13.312 26.624v295.424l-295.424 419.84c-11.264 14.848-8.192 35.84 6.656 47.104 5.632 4.608 12.8 6.656 19.968 6.656h805.376c26.624 0 43.52-30.208 26.624-53.76l-295.424-419.328v-379.392z"  horiz-adv-x="1024" />

    
    <glyph glyph-name="LiRa_cross1" unicode="&#59077;" d="M512 870.4C243.2 870.4 25.6 652.8 25.6 384s217.6-486.4 486.4-486.4 486.4 217.6 486.4 486.4-217.6 486.4-486.4 486.4z m0-911.36c-234.496 0-424.96 190.464-424.96 424.96s190.464 424.96 424.96 424.96 424.96-190.464 424.96-424.96-190.464-424.96-424.96-424.96zM693.248 565.248c-11.776 11.776-31.744 11.776-43.52 0l-138.24-138.24-138.24 138.24c-11.776 11.776-31.744 11.776-43.52 0s-11.776-31.744 0-43.52l138.24-138.24-138.24-138.24c-11.776-11.776-11.776-31.744 0-43.52s31.744-11.776 43.52 0l138.24 138.24 138.24-138.24c11.776-11.776 31.744-11.776 43.52 0s11.776 31.744 0 43.52l-138.24 138.24 138.24 138.24c12.288 12.288 12.288 31.744 0 43.52z"  horiz-adv-x="1024" />

    
    <glyph glyph-name="LiRa_more" unicode="&#59078;" d="M197.12 487.936c-42.496 0-76.8-34.304-76.8-76.8s34.304-76.8 76.8-76.8 76.8 34.304 76.8 76.8-34.304 76.8-76.8 76.8zM513.024 489.984c-42.496 0-76.8-34.304-76.8-76.8s34.304-76.8 76.8-76.8 76.8 34.304 76.8 76.8-34.304 76.8-76.8 76.8zM829.44 492.032c-42.496 0-76.8-34.304-76.8-76.8s34.304-76.8 76.8-76.8 76.8 34.304 76.8 76.8-34.816 76.8-76.8 76.8z"  horiz-adv-x="1024" />

    
    <glyph glyph-name="LiRa_left" unicode="&#59079;" d="M763.392 811.008L310.784 358.4c-13.824-13.824-36.864-13.824-50.688 0s-13.824 36.864 0 50.688l452.608 452.608c13.824 13.824 36.864 13.824 50.688 0 14.336-13.824 14.336-36.352 0-50.688zM712.704-93.696l-452.608 452.608c-13.824 13.824-13.824 36.864 0 50.688s36.864 13.824 50.688 0l452.608-452.608c13.824-13.824 13.824-36.864 0-50.688-13.824-14.336-36.352-14.336-50.688 0z"  horiz-adv-x="1024" />

    
    <glyph glyph-name="LiRa_more1" unicode="&#59080;" d="M171.52 498.176c-48.128 0-87.04-38.912-87.04-87.04s38.912-87.04 87.04-87.04 87.04 38.912 87.04 87.04-38.912 87.04-87.04 87.04z m0-122.88c-19.968 0-35.84 15.872-35.84 35.84s15.872 35.84 35.84 35.84 35.84-15.872 35.84-35.84-15.872-35.84-35.84-35.84zM513.024 500.736c-48.128 0-87.04-38.912-87.04-87.04s38.912-87.04 87.04-87.04 87.04 38.912 87.04 87.04c0 47.616-38.912 87.04-87.04 87.04z m0-122.88c-19.968 0-35.84 15.872-35.84 35.84s15.872 35.84 35.84 35.84 35.84-15.872 35.84-35.84-15.872-35.84-35.84-35.84zM855.04 502.784c-48.128 0-87.04-38.912-87.04-87.04s38.912-87.04 87.04-87.04 87.04 38.912 87.04 87.04-38.912 87.04-87.04 87.04z m0-122.88c-19.968 0-35.84 15.872-35.84 35.84s15.872 35.84 35.84 35.84 35.84-15.872 35.84-35.84-15.872-35.84-35.84-35.84z"  horiz-adv-x="1024" />

    
    <glyph glyph-name="LiRa_next-page" unicode="&#59081;" d="M512 870.4C243.2 870.4 25.6 652.8 25.6 384s217.6-486.4 486.4-486.4 486.4 217.6 486.4 486.4-217.6 486.4-486.4 486.4z m0-911.36c-234.496 0-424.96 190.464-424.96 424.96s190.464 424.96 424.96 424.96 424.96-190.464 424.96-424.96-190.464-424.96-424.96-424.96zM774.144 405.504l-192 192c-11.776 11.776-31.744 11.776-43.52 0s-11.776-31.744 0-43.52L678.4 414.72h-430.08c-16.896 0-30.72-13.824-30.72-30.72s13.824-30.72 30.72-30.72h430.08l-139.264-139.264c-11.776-11.776-11.776-31.744 0-43.52s31.744-11.776 43.52 0l192 192c11.264 11.776 11.264 31.232-0.512 43.008z"  horiz-adv-x="1024" />

    
    <glyph glyph-name="LiRa_help" unicode="&#59082;" d="M512 870.4C243.2 870.4 25.6 652.8 25.6 384s217.6-486.4 486.4-486.4 486.4 217.6 486.4 486.4-217.6 486.4-486.4 486.4z m8.192-911.36c-241.152-4.608-437.248 192-433.152 433.152C91.136 619.52 276.48 804.864 503.808 808.96c241.152 4.608 437.248-192 433.152-433.152-4.096-227.328-189.44-412.672-416.768-416.768zM540.16 92.672c-46.592-22.528-92.16 23.04-69.632 69.632 4.096 8.192 11.264 15.36 19.456 19.456 46.592 22.528 92.16-23.04 69.632-69.632-4.096-8.704-11.264-15.36-19.456-19.456z m4.096 224.768v-34.304c0-15.872-12.8-28.672-28.672-28.672h-5.12c-15.872 0-28.672 12.8-28.672 28.672v72.704c0 15.872 12.8 28.672 28.672 28.672 55.808 0 105.984 50.176 105.984 105.984 0 55.808-50.176 105.984-105.984 105.984h-0.512c-48.128 0-92.16-37.888-102.912-83.968-3.072-12.8-14.336-22.528-27.648-22.528h-4.608c-18.944 0-32.256 16.384-28.672 34.304 15.872 76.288 83.456 133.632 164.352 134.144h0.512c92.672 0 168.448-75.264 168.448-168.448 0-77.312-52.736-144.384-126.976-163.328-5.12-0.512-8.192-4.608-8.192-9.216z"  horiz-adv-x="1024" />

    
    <glyph glyph-name="LiRa_region" unicode="&#59083;" d="M474.112 86.528l19.456-21.504 19.968 21.504c2.56 3.072 69.632 75.776 137.728 167.936 93.696 126.976 141.312 225.28 141.312 292.864 0 78.848-30.72 153.088-86.528 208.896C650.24 812.032 576 842.752 496.64 842.752s-153.6-30.72-209.408-86.528-86.016-130.56-86.016-209.408c0-67.584 46.592-165.888 137.728-292.864 66.56-92.16 132.096-164.864 135.168-167.424z m-209.92 457.216c0 128 103.936 232.448 232.448 232.448s232.448-103.936 232.448-232.448c0-28.16-12.8-66.56-37.888-114.176-20.992-39.936-50.176-85.504-87.552-135.68-43.008-57.856-86.016-108.544-110.08-135.68-23.552 27.136-65.536 77.312-107.008 135.168-35.84 49.664-64.512 95.744-85.504 135.68-24.064 47.616-36.864 86.016-36.864 114.688zM719.36 163.328v-47.616c120.32-17.408 200.704-46.08 202.24-65.024 1.536-17.92-183.296-74.24-409.6-74.24s-401.92 51.2-409.6 74.24c-5.632 17.408 69.12 44.544 181.76 61.952v47.616C139.264 139.264 40.96 98.304 40.96 50.688c0-69.12 210.944-125.44 471.04-125.44s471.04 56.32 471.04 125.44c0 49.664-107.52 92.16-263.68 112.64zM493.568 446.976c55.296 0 100.352 45.056 100.352 100.352s-45.056 100.352-100.352 100.352-100.352-45.056-100.352-100.352 45.056-100.352 100.352-100.352z m0 150.528c27.648 0 50.176-22.528 50.176-50.176s-22.528-50.176-50.176-50.176-50.176 22.528-50.176 50.176 22.528 50.176 50.176 50.176z"  horiz-adv-x="1024" />

    
    <glyph glyph-name="LiRa_loop" unicode="&#59084;" d="M924.672 669.696c-1.024 1.024-2.048 1.536-3.072 2.56-0.512 1.024-1.536 1.536-2.048 2.56l-163.328 163.328c-11.776 11.776-31.744 11.776-43.52 0s-11.776-31.744 0-43.52l113.152-113.152H127.488c-16.896 0-30.72-13.824-30.72-30.72v-233.472c0-16.896 13.824-30.72 30.72-30.72s30.72 13.824 30.72 30.72V620.032h673.28l-114.176-114.176c-11.776-11.776-11.776-31.744 0-43.52s31.744-11.776 43.52 0l163.328 163.328c12.288 12.288 12.288 31.744 0.512 44.032zM99.328 98.304c1.024-1.024 2.048-1.536 3.072-2.56 0.512-1.024 1.536-1.536 2.048-2.56l163.328-163.328c11.776-11.776 31.744-11.776 43.52 0s11.776 31.744 0 43.52l-113.152 113.152H896c16.896 0 30.72 13.824 30.72 30.72v1.536 231.936c0 16.896-13.824 30.72-30.72 30.72s-30.72-13.824-30.72-30.72v-202.752H192.512l114.176 114.176c11.776 11.776 11.776 31.744 0 43.52s-31.744 11.776-43.52 0l-163.328-163.328c-12.288-12.288-12.288-31.744-0.512-44.032z"  horiz-adv-x="1024" />

    
    <glyph glyph-name="LiRa_last-page" unicode="&#59085;" d="M512 870.4C243.2 870.4 25.6 652.8 25.6 384s217.6-486.4 486.4-486.4 486.4 217.6 486.4 486.4-217.6 486.4-486.4 486.4z m0-911.36c-234.496 0-424.96 190.464-424.96 424.96s190.464 424.96 424.96 424.96 424.96-190.464 424.96-424.96-190.464-424.96-424.96-424.96zM226.304 362.496l192-192c11.776-11.776 31.744-11.776 43.52 0s11.776 31.744 0 43.52L322.56 353.28h430.08c16.896 0 30.72 13.824 30.72 30.72s-13.824 30.72-30.72 30.72H322.56l139.264 139.264c11.776 11.776 11.776 31.744 0 43.52s-31.744 11.776-43.52 0L226.304 405.504c-11.776-11.776-11.776-31.232 0-43.008z"  horiz-adv-x="1024" />

    
    <glyph glyph-name="LiRa_share" unicode="&#59086;" d="M800.256 441.344c84.992 0 153.6 68.608 153.6 153.6s-68.608 153.6-153.6 153.6-153.6-68.608-153.6-153.6v-4.608l-197.632-51.2C419.84 616.448 345.088 671.744 257.536 671.744c-113.152 0-204.8-91.648-204.8-204.8s91.648-204.8 204.8-204.8c56.832 0 108.544 23.552 145.92 60.928l196.608-135.168c-6.144-16.896-9.728-34.816-9.728-53.76 0-84.992 68.608-153.6 153.6-153.6s153.6 68.608 153.6 153.6-68.608 153.6-153.6 153.6c-47.616 0-90.112-21.504-118.272-55.296L434.688 363.52c17.92 30.208 27.648 65.536 27.648 102.912 0 7.68-0.512 14.848-1.024 22.528l195.584 50.688c22.528-57.344 78.336-98.304 143.36-98.304z m-56.32-215.04c50.688 0 92.16-41.472 92.16-92.16s-41.472-92.16-92.16-92.16-92.16 41.472-92.16 92.16 41.472 92.16 92.16 92.16z m-486.4 97.28c-79.36 0-143.36 64-143.36 143.36s64 143.36 143.36 143.36 143.36-64 143.36-143.36-64-143.36-143.36-143.36z m542.72 363.52c50.688 0 92.16-41.472 92.16-92.16s-41.472-92.16-92.16-92.16-92.16 41.472-92.16 92.16 41.472 92.16 92.16 92.16z"  horiz-adv-x="1024" />

    
    <glyph glyph-name="LiRa_fill" unicode="&#59087;" d="M952.832 377.344c-0.512 0.512-1.024 1.024-1.536 1.024-0.512 0.512-0.512 1.024-1.024 1.536L460.288 869.888c-11.776 11.776-31.744 11.776-43.52 0s-11.776-31.744 0-43.52L471.04 772.096 57.344 358.4c-6.144-6.144-9.216-13.824-8.704-22.016-0.512-7.68 2.56-15.872 8.192-21.504L473.6-102.4c4.608-4.608 9.728-7.168 15.872-7.68 9.728-2.048 20.48 0.512 28.16 8.192l435.712 435.712c11.776 11.776 11.776 31.232-0.512 43.52z m-65.024-22.016L855.04 322.56c-1.536 0-2.56-0.512-4.096-0.512l-142.848 63.488c-13.824 6.144-29.184 8.192-44.032 5.632l-266.24-47.104c-10.24-2.048-20.992-1.024-30.72 1.536L184.832 398.848l329.728 329.728 373.248-373.248z m-392.704-392.192l-373.248 373.248 7.68 7.68L345.088 281.6c9.216-2.56 18.432-3.072 28.16-1.536l281.6 43.52c12.288 2.048 25.088 0.512 36.352-3.584l117.76-43.52-313.856-313.344zM929.28 256s-46.08-41.472-46.08-92.672c0-51.2 46.08-55.808 46.08-55.808s46.08 4.608 46.08 55.808-46.08 92.672-46.08 92.672z"  horiz-adv-x="1024" />

    
    <glyph glyph-name="LiRa_notice" unicode="&#59088;" d="M918.016 604.672c-35.84 64.512-86.528 118.784-147.456 156.672-6.144 4.096-11.776 6.656-18.432 6.656-17.408 0-31.232-14.848-31.232-32.768 0-12.288 6.656-23.04 17.408-29.696 107.52-66.56 174.08-189.44 174.08-321.536 0-131.584-66.56-254.464-174.08-321.024-8.704-5.12-18.432-15.872-18.432-30.208 0-17.92 13.824-32.768 31.232-32.768 7.168 0 12.8 3.072 18.432 6.144 60.928 37.888 112.64 92.16 148.48 156.672 36.864 66.56 56.32 142.848 56.32 220.672 0 78.336-19.456 154.624-56.32 221.184zM804.864 384c0 45.568-11.264 90.624-33.28 130.048-20.992 37.888-51.2 70.144-87.552 92.16-1.024 0.512-10.24 5.632-17.408 5.632-17.408 0-31.232-14.848-31.232-33.28 0-11.776 6.144-23.04 15.36-28.672 56.32-33.792 91.136-97.28 91.136-165.888 0-70.144-35.84-134.144-94.208-167.936-9.216-6.144-14.848-16.384-14.848-28.16 0-18.432 13.824-33.28 31.232-33.28 7.168 0 15.36 4.096 15.872 4.608 76.8 45.568 124.928 131.584 124.928 224.768z m-259.072 457.728c-5.12 2.56-10.752 4.096-16.384 4.096-8.704 0-16.896-3.072-23.552-8.704-5.632-4.608-54.272-45.568-107.52-87.04-95.744-75.776-124.928-89.088-130.56-91.136H80.896c-17.408 0-31.232-14.848-31.232-32.768v-483.84c0-17.92 13.824-32.768 31.232-32.768h209.408c5.632-2.56 32.768-16.384 118.272-90.112 29.184-25.088 62.464-55.296 94.72-84.992l1.536-1.536c6.656-6.656 15.872-10.24 24.576-10.24 5.12 0 10.752 1.024 15.36 3.584 13.824 6.656 23.04 20.992 23.04 35.84 0 1.536 0.512 161.28 0.512 164.864 0 3.072-1.536 672.768-1.536 679.424 0 14.848-8.192 28.672-20.992 35.328z m-35.328-709.632l-0.512-110.592c-15.872 14.336-36.352 27.648-50.688 40.448-116.736 100.352-145.92 108.544-165.888 108.544h-1.024-163.84c-17.92 0-22.016 4.608-22.016 24.576V576.512c0 14.336 1.536 20.992 15.36 20.992h146.944c19.456 0 49.152 8.192 176.128 107.52 19.456 15.36 45.056 31.232 64.512 47.104 0.512-61.44 1.024-617.472 1.024-620.032z"  horiz-adv-x="1024" />

    
    <glyph glyph-name="LiRa_order" unicode="&#59089;" d="M441.344 825.344c-2.048 2.048-4.608 4.096-7.168 5.632-14.848 8.704-33.28 3.584-41.984-11.264L210.432 504.832c-8.192-14.848-3.584-33.28 11.264-41.984 14.848-8.704 33.28-3.584 41.984 11.264L389.12 692.224v-728.576c0-16.896 13.824-30.72 30.72-30.72s30.72 13.824 30.72 30.72v839.68c0 8.704-3.584 16.384-9.216 22.016zM582.656-57.344c2.048-2.048 4.608-4.096 7.168-5.632 14.848-8.704 33.28-3.584 41.984 11.264l181.76 314.88c8.192 14.848 3.584 33.28-11.264 41.984-14.848 8.704-33.28 3.584-41.984-11.264L634.88 75.776V804.352c0 16.896-13.824 30.72-30.72 30.72s-30.72-13.824-30.72-30.72v-839.68c0-8.704 3.584-16.384 9.216-22.016z"  horiz-adv-x="1024" />

    
    <glyph glyph-name="LiRa_star" unicode="&#59090;" d="M770.048-81.92c-8.192 0-15.36 2.048-23.04 6.144l-206.336 113.152c-8.704 4.608-18.432 7.168-28.16 7.168s-18.944-2.048-28.16-7.168l-206.336-113.152c-7.168-3.584-14.848-6.144-23.04-6.144-13.824 0-28.16 6.656-37.376 17.92-10.24 11.776-13.824 27.136-11.776 43.52l39.936 240.128c3.584 19.968-3.072 40.448-16.896 54.272L61.952 444.416c-14.336 14.336-18.944 35.328-12.288 54.272 6.144 18.432 21.504 31.744 39.936 34.816l230.4 35.328c18.944 3.072 35.84 15.36 45.056 33.792l102.912 218.624C476.16 839.68 492.544 849.92 512.512 849.92c18.944 0 35.84-11.264 44.032-28.672l102.912-218.624c8.704-18.432 25.6-30.72 45.056-33.792l230.4-35.328c18.432-3.072 33.792-15.36 39.936-34.816 6.656-18.944 1.536-40.448-12.288-54.272l-166.912-169.984c-13.824-13.824-20.48-34.816-16.896-54.272l39.936-240.128c3.072-16.384-1.536-31.744-11.776-43.52-9.216-11.776-22.016-18.432-36.864-18.432z m-257.024 193.536c16.384 0 32.256-4.096 46.592-11.776l202.24-111.104-5.632 12.288v0.512l-36.352 222.208c-5.632 32.256 4.608 65.024 27.136 87.552l155.136 157.696c2.048 2.048 2.56 5.632 1.536 8.192v2.56l-218.112 33.28c-32.256 4.608-59.392 25.088-73.728 55.296l-98.304 208.896-99.328-208.384c-14.336-30.208-41.472-50.688-73.728-55.296l-221.696-34.304 4.608-4.608c0-1.536 0.512-3.584 2.048-5.632l155.136-157.696c22.528-22.528 32.768-55.296 27.136-87.552l-36.864-222.208v-3.584l1.536-6.144 195.072 107.008c13.312 8.704 29.184 12.8 45.568 12.8z"  horiz-adv-x="1024" />

    
    <glyph glyph-name="LiRa_no-preview" unicode="&#59091;" d="M325.12 636.928c9.216-9.216 22.528-11.264 34.304-6.656 49.152 20.992 100.352 31.744 152.576 31.744 149.504 0 287.232-85.504 413.184-260.096 7.68-10.752 7.68-25.6 0-36.352-43.52-59.904-88.064-109.056-133.632-147.968-13.824-11.776-14.336-32.768-1.536-45.056 11.264-11.264 29.696-12.288 41.472-2.048 59.392 50.688 116.224 115.712 169.984 196.096 7.168 10.24 7.168 24.064 0 34.304-143.872 214.016-307.2 323.072-489.472 323.072-60.928 0-120.32-12.288-177.152-36.864-19.968-8.192-25.088-34.304-9.728-50.176zM690.176 127.488c-8.704 8.704-22.016 11.264-33.792 6.656-47.104-18.944-95.232-28.16-144.896-28.16-149.504 0-286.72 85.504-413.184 260.096-7.68 10.752-7.68 25.6 0 36.352 41.472 56.832 83.968 104.448 128 142.336 13.312 11.776 14.336 32.256 1.536 45.056-11.776 11.776-30.208 12.288-42.496 1.024-56.832-49.152-111.104-112.64-162.816-189.44-7.168-10.24-7.168-24.064 0-34.304 143.872-214.016 307.2-323.072 489.472-323.072 57.856 0 114.176 11.264 167.936 32.768 20.48 8.192 26.112 34.816 10.24 50.688zM458.24 528.896c20.48 7.68 43.008 10.752 66.048 9.216 73.728-5.632 134.144-64.512 141.312-138.24 2.56-25.088-1.024-48.64-9.216-70.144-4.096-10.752-1.536-22.528 6.656-30.208l0.512-0.512c16.384-16.384 43.52-10.24 51.712 11.264 8.704 24.064 13.312 50.176 13.312 77.312-1.536 116.224-97.28 211.968-213.504 213.504-27.648 0.512-53.76-4.608-77.824-13.312-20.992-7.68-26.624-34.816-10.752-50.688l0.512-0.512c8.192-9.216 20.48-11.776 31.232-7.68zM558.592 236.544c-18.432-5.632-38.912-8.192-59.904-6.656-74.24 6.144-134.656 66.56-140.8 140.8-1.536 20.992 0.512 40.96 6.656 59.392 3.584 10.752 0.512 22.016-7.168 30.208-16.896 16.896-45.056 9.728-52.224-13.312-7.68-25.088-10.752-51.712-8.704-79.872 7.68-105.984 93.696-191.488 199.168-199.168 27.648-2.048 54.784 1.024 79.36 8.704 22.528 7.168 30.208 35.328 13.312 52.224-7.68 8.192-19.456 10.752-29.696 7.68zM830.464 13.312L149.504 693.76c-11.264 11.264-11.264 29.696 0 40.96l2.56 2.56c11.264 11.264 29.696 11.264 40.96 0l680.448-680.448c11.776-11.776 11.776-31.744 0-43.52s-31.232-11.776-43.008 0z"  horiz-adv-x="1024" />

    
    <glyph glyph-name="LiRa_preview" unicode="&#59092;" d="M508.928 164.864c-119.296 0-216.576 96.768-216.576 216.576S389.12 598.016 508.928 598.016s216.576-96.768 216.576-216.576-97.28-216.576-216.576-216.576z m0 61.952c85.504 0 154.624 69.12 154.624 154.624s-69.12 154.624-154.624 154.624-154.624-69.12-154.624-154.624 69.12-154.624 154.624-154.624zM508.928 41.472c-182.272 0-345.6 109.056-489.472 323.072-7.168 10.24-7.168 24.064 0 34.304C163.328 612.864 326.656 721.92 508.928 721.92s345.6-109.056 489.472-323.072c7.168-10.24 7.168-24.064 0-34.304-143.872-214.528-307.2-323.072-489.472-323.072z m0 61.44c154.624 0 296.448 91.648 426.496 278.528-130.048 186.88-271.872 278.528-426.496 278.528S212.48 568.32 82.432 381.44c130.048-186.88 271.872-278.528 426.496-278.528z"  horiz-adv-x="1024" />

    
    <glyph glyph-name="LiRa_plus" unicode="&#59093;" d="M512 870.4C243.2 870.4 25.6 652.8 25.6 384s217.6-486.4 486.4-486.4 486.4 217.6 486.4 486.4-217.6 486.4-486.4 486.4z m0-911.36c-234.496 0-424.96 190.464-424.96 424.96s190.464 424.96 424.96 424.96 424.96-190.464 424.96-424.96-190.464-424.96-424.96-424.96zM708.608 353.28H542.72v-165.888c0-16.896-13.824-30.72-30.72-30.72s-30.72 13.824-30.72 30.72V353.28H315.392c-16.896 0-30.72 13.824-30.72 30.72s13.824 30.72 30.72 30.72H481.28V580.608c0 16.896 13.824 30.72 30.72 30.72s30.72-13.824 30.72-30.72V414.72h165.888c16.896 0 30.72-13.824 30.72-30.72s-13.824-30.72-30.72-30.72z"  horiz-adv-x="1024" />

    
    <glyph glyph-name="LiRa_refresh" unicode="&#59094;" d="M926.72 265.216c-34.304 9.728-41.984-17.408-49.664-37.376-56.832-140.288-198.656-231.936-350.208-231.936-205.824 0-388.608 182.784-388.608 388.096s182.784 388.096 388.096 388.096c108.544 0 215.552-50.176 287.232-128.512h-115.712c-16.896 0-30.72-13.824-30.72-30.72s13.824-30.72 30.72-30.72h179.2c9.728 0 18.432 4.608 24.064 11.776 7.168 5.632 11.776 14.336 11.776 24.064v179.2c0 16.896-13.824 30.72-30.72 30.72s-30.72-13.824-30.72-30.72v-103.424c-83.968 88.064-200.704 139.264-324.608 139.264-247.808 0-449.024-201.216-449.024-449.024s201.216-449.024 449.024-449.024c182.784 0 347.648 110.592 416.256 280.064 7.68 19.456 4.096 44.544-16.384 50.176z"  horiz-adv-x="1024" />

    
    <glyph glyph-name="LiRa_top" unicode="&#59095;" d="M912.384 623.616H111.616c-16.896 0-30.72 13.824-30.72 30.72s13.824 30.72 30.72 30.72h800.768c16.896 0 30.72-13.824 30.72-30.72s-13.824-30.72-30.72-30.72zM490.496 536.064l-400.896-400.896c-11.776-11.776-11.776-31.744 0-43.52s31.744-11.776 43.52 0l378.88 378.88 378.88-378.88c11.776-11.776 31.744-11.776 43.52 0s11.776 31.744 0 43.52l-400.896 400.896c-11.776 11.776-31.232 11.776-43.008 0z"  horiz-adv-x="1024" />

    
    <glyph glyph-name="LiRa_work" unicode="&#59096;" d="M808.96 839.68H215.04c-45.056 0-81.92-36.864-81.92-81.92v-747.52c0-45.056 36.864-81.92 81.92-81.92h593.92c45.056 0 81.92 36.864 81.92 81.92V757.76c0 45.056-36.864 81.92-81.92 81.92z m-141.312-137.216H356.352V778.24h310.784v-75.776zM788.48-10.24H235.52c-22.528 0-40.96 18.432-40.96 40.96V737.28c0 22.528 18.432 40.96 40.96 40.96h59.392V672.768c0-16.896 13.824-30.72 30.72-30.72h372.224c16.896 0 30.72 13.824 30.72 30.72v1.024V778.24H788.48c22.528 0 40.96-18.432 40.96-40.96v-706.048c0-23.04-18.432-41.472-40.96-41.472zM336.384 396.288h360.96c16.896 0 30.72 13.824 30.72 30.72s-13.824 30.72-30.72 30.72H336.384c-16.896 0-30.72-13.824-30.72-30.72s13.824-30.72 30.72-30.72zM697.344 292.352H336.896c-16.896 0-30.72-13.824-30.72-30.72s13.824-30.72 30.72-30.72h360.96c16.896 0 30.72 13.824 30.72 30.72-0.512 16.896-14.336 30.72-31.232 30.72z"  horiz-adv-x="1024" />

    
    <glyph glyph-name="LiRa_remind" unicode="&#59097;" d="M305.152 503.808c0-69.12 4.608-108.032-34.304-206.848-24.064-61.44-69.12-139.264-137.728-206.848l757.76-5.12c-69.12 69.12-114.688 142.848-137.728 211.968-34.304 103.424-34.304 137.728-34.304 206.848 0 137.728-34.304 241.152-206.848 241.152-166.912 0-206.848-102.912-206.848-241.152z m306.688-471.552h-199.68c13.824-38.912 39.424-72.192 99.84-72.192 57.344 0 80.896 33.28 94.72 72.192h5.12z m-2.048 759.296c120.32-32.768 169.984-133.632 169.984-289.792 0-94.208 5.12-104.448 30.208-179.712 18.944-56.32 57.856-114.688 117.76-175.104 41.984-41.984 12.288-114.176-47.616-114.176H675.84c-15.36-76.288-82.944-134.144-164.352-134.144s-148.48 57.344-164.352 134.144H143.36c-59.904 0-89.6 72.704-47.104 114.688 59.904 58.368 98.304 116.736 117.248 174.08 16.384 50.176 26.624 110.08 30.208 180.224 0 153.088 51.712 254.976 169.984 289.28C422.912 836.096 463.36 870.4 512 870.4c47.616 0 88.064-33.792 97.792-78.848z m0 0"  horiz-adv-x="1024" />

    
    <glyph glyph-name="LiRa_reduce" unicode="&#59098;" d="M512 870.4C243.2 870.4 25.6 652.8 25.6 384s217.6-486.4 486.4-486.4 486.4 217.6 486.4 486.4-217.6 486.4-486.4 486.4z m0-911.36c-234.496 0-424.96 190.464-424.96 424.96s190.464 424.96 424.96 424.96 424.96-190.464 424.96-424.96-190.464-424.96-424.96-424.96zM702.464 416.256H317.952c-19.456 0-34.816-13.824-34.816-30.72s15.872-30.72 34.816-30.72h384.512c19.456 0 34.816 13.824 34.816 30.72s-15.36 30.72-34.816 30.72z"  horiz-adv-x="1024" />

    
    <glyph glyph-name="LiRa_release" unicode="&#59099;" d="M985.088 780.8v0.512c0 2.048 0 3.584-0.512 5.12-0.512 2.048-1.024 3.584-1.536 5.632-2.56 6.656-7.68 12.288-14.336 15.872-7.68 4.608-17.92 6.144-27.136 2.56L61.44 425.984c-7.168-2.56-12.288-7.68-15.872-13.824-0.512-0.512-1.024-1.536-1.536-2.048-9.216-14.336-5.12-33.28 8.704-42.496L207.36 266.24c14.336-9.216 33.28-5.12 42.496 8.704s5.12 33.28-8.704 42.496L131.072 389.12 793.6 679.424l-493.056-438.272c-2.56-2.56-4.608-5.632-5.632-8.704-4.608-5.12-7.68-11.776-8.192-18.944l-39.424-215.552c-1.024-16.896 12.288-31.232 28.672-32.256 16.896-1.024 31.232 12.288 32.256 28.672l37.376 204.8 544.256 483.328-210.432-651.264-227.328 149.504c-14.336 9.216-33.28 5.12-42.496-8.704s-5.12-33.28 8.704-42.496l260.096-170.496c14.336-9.216 33.28-5.12 42.496 8.704 2.56 4.096 4.096 8.192 4.608 12.8 2.56 3.072 4.096 7.168 5.12 11.264l250.88 777.216c0.512 1.024 0.512 2.048 1.024 3.072l0.512 1.536v0.512c0 0.512 0 1.024 0.512 1.536 1.024 2.048 1.536 3.584 1.536 5.12z"  horiz-adv-x="1024" />

    
    <glyph glyph-name="LiRa_words" unicode="&#59100;" d="M906.24 808.96H117.76c-16.896 0-30.72-13.824-30.72-30.72s13.824-30.72 30.72-30.72h363.52v-757.76c0-16.896 13.824-30.72 30.72-30.72s30.72 13.824 30.72 30.72V747.52h363.52c16.896 0 30.72 13.824 30.72 30.72s-13.824 30.72-30.72 30.72z"  horiz-adv-x="1024" />

    
    <glyph glyph-name="LiRa_like" unicode="&#59101;" d="M716.288 801.28c-79.36 0-154.624-37.376-204.288-94.72-49.664 58.368-125.44 94.72-204.288 94.72-140.8 0-250.368-110.592-250.368-250.368 0-171.008 154.624-312.32 388.608-524.288l66.048-59.904 66.048 59.904c233.984 211.968 388.608 352.768 388.608 524.288 0 140.8-110.592 250.368-250.368 250.368z m-148.992-702.464l-55.296-50.176-55.296 50.176c-196.608 178.176-342.016 296.448-342.016 440.832 0 117.76 87.04 205.312 205.312 205.312 66.56 0 150.528-56.32 192-105.472 41.472 48.128 125.44 105.472 192 105.472 117.76 0 205.312-87.04 205.312-205.312 0-143.872-145.408-262.144-342.016-440.832z"  horiz-adv-x="1024" />

    
    <glyph glyph-name="LiRa_lock" unicode="&#59102;" d="M814.08 476.16h-80.384c0.512 2.56 0.512 5.12 0.512 7.68V588.8c0 118.272-96.768 215.04-215.04 215.04h-14.848c-118.272 0-215.04-96.768-215.04-215.04v-112.64H209.92c-45.056 0-81.92-36.864-81.92-81.92v-348.16c0-45.056 36.864-81.92 81.92-81.92h604.16c45.056 0 81.92 36.864 81.92 81.92V394.24c0 45.056-36.864 81.92-81.92 81.92zM351.232 599.04c0 81.408 66.56 148.48 148.48 148.48h24.576c81.408 0 148.48-66.56 148.48-148.48v-117.76H351.232V599.04z m482.304-532.48c0-22.528-18.432-40.96-40.96-40.96H230.912c-22.528 0-40.96 18.432-40.96 40.96v307.2c0 22.528 18.432 40.96 40.96 40.96h562.176c22.528 0 40.96-18.432 40.96-40.96v-307.2zM517.12 129.024c-16.896 0-30.72 13.824-30.72 30.72v127.488c0 16.896 13.824 30.72 30.72 30.72s30.72-13.824 30.72-30.72v-127.488c0-16.896-13.824-30.72-30.72-30.72z"  horiz-adv-x="1024" />

    
    <glyph glyph-name="LiRa_up" unicode="&#59103;" d="M939.008 132.608L486.912 584.704c-13.824 13.824-13.824 36.864 0 50.688s36.864 13.824 50.688 0l452.608-452.608c13.824-13.824 13.824-36.864 0-50.688-14.336-13.824-36.864-13.824-51.2 0.512zM34.304 183.296l452.608 452.608c13.824 13.824 36.864 13.824 50.688 0s13.824-36.864 0-50.688l-452.608-452.608c-13.824-13.824-36.864-13.824-50.688 0-14.336 13.824-14.336 36.352 0 50.688z"  horiz-adv-x="1024" />

    
    <glyph glyph-name="LiRa_shop" unicode="&#59104;" d="M985.6 540.672v1.536c-0.512 2.048-1.024 4.096-1.536 5.632l-81.92 203.264c-14.336 41.984-54.784 68.096-102.4 68.096H226.816c-48.128 0-85.504-25.6-98.816-66.048L39.936 545.792c-0.512-1.536-1.024-3.072-1.536-5.12-6.144-19.456-9.216-39.424-9.216-59.392 0-71.168 38.912-135.68 101.376-168.96 25.6-13.824 55.808-20.48 90.112-20.48 57.344 0 110.08 25.088 146.432 68.096 35.84-42.496 88.576-67.584 145.408-68.096 56.32 0.512 109.056 25.6 144.896 68.096 36.352-43.008 89.088-68.096 146.432-68.096 34.816 0 65.536 7.68 91.648 21.504 61.44 33.792 99.84 98.304 99.84 168.448-0.512 20.48-3.584 40.448-9.728 58.88z m-121.856-172.544c-15.872-8.704-35.328-13.312-58.88-13.312-42.496 0-81.408 21.504-104.448 58.368-1.536 3.584-4.096 9.216-9.216 14.848-5.632 6.144-16.384 14.336-33.28 14.336-13.824 0-26.624-5.632-33.792-14.336-4.608-5.12-7.168-10.752-9.216-14.336-22.528-36.352-60.928-58.368-102.912-58.368-42.496 0-80.896 22.016-103.424 58.368-1.536 3.072-4.096 8.704-8.192 13.312-16.384 18.944-53.248 17.92-67.584 1.024-5.12-5.632-8.192-11.776-9.728-15.872-22.528-36.352-55.808-57.856-98.304-58.368-22.528 0-41.984-1.024-57.344 7.168-39.936 21.504-75.776 73.728-75.776 119.296 0 13.312 2.048 27.136 6.656 39.936 0.512 1.024 0.512 2.048 0.512 3.072l87.04 216.064c1.536 5.12 7.168 21.504 34.304 21.504h587.264c11.264-0.512 30.208-2.56 36.864-22.528l81.408-213.504c0.512-1.536 0.512-3.072 1.024-4.096 4.608-13.312 6.656-26.624 6.656-39.936-0.512-44.032-30.208-91.136-69.632-112.64zM892.928 283.648c-19.456 0-34.816-15.36-34.816-34.816v-215.552c0-10.752-8.704-19.456-19.456-19.456l-665.6-0.512c-10.752 0-19.456 8.704-19.456 19.456v212.48c0 19.456-15.872 34.816-34.816 34.816-19.456 0-29.696-15.872-29.696-34.816v-207.36c0-49.152 39.936-89.088 89.088-89.088l655.36 0.512c49.152 0 89.088 39.936 89.088 89.088v210.432c0 18.944-10.24 34.816-29.696 34.816zM784.896 510.976H227.328c-19.456 0-34.816 13.824-34.816 30.72s15.36 30.72 34.816 30.72h557.056c19.456 0 34.816-13.824 34.816-30.72 0.512-16.896-15.36-30.72-34.304-30.72z"  horiz-adv-x="1024" />

    
    <glyph glyph-name="LiRa_security" unicode="&#59105;" d="M865.28 731.136c-148.992 16.896-260.608 56.832-332.8 119.808l-18.944 16.384-20.48-14.336c-112.64-80.384-224.256-121.344-331.264-121.344h-31.744v-445.44c0-136.704 120.32-260.608 368.128-378.88l12.8-6.144 13.312 5.632c245.248 105.472 369.152 232.96 369.152 379.392V727.552l-28.16 3.584z m-30.208-445.44c0-116.224-112.128-227.328-322.56-320-211.456 103.424-324.096 214.016-324.096 320V673.792c103.936 6.656 215.552 46.592 321.536 118.272 76.288-58.368 188.928-96.768 324.608-115.712v-390.656zM355.328 419.328c-11.776 13.312-31.744 19.456-45.056 7.68-13.312-11.776-9.216-31.744 2.56-45.056l120.832-137.216c12.288-14.336 30.208-21.504 47.616-21.504 18.944 0 37.376 8.704 49.152 23.552L727.04 487.936c11.264 13.824 9.216 33.792-4.608 44.544-13.824 11.264-28.672 4.096-39.424-9.728L481.28 281.6 355.328 419.328z"  horiz-adv-x="1024" />

    
    <glyph glyph-name="LiRa_picture" unicode="&#59106;" d="M312.32 655.36c-68.096 0-122.88-54.784-122.88-122.88s54.784-122.88 122.88-122.88 122.88 54.784 122.88 122.88-54.784 122.88-122.88 122.88z m0-184.32c-33.792 0-61.44 27.648-61.44 61.44s27.648 61.44 61.44 61.44 61.44-27.648 61.44-61.44-27.136-61.44-61.44-61.44zM857.6 773.12h-691.2C91.648 773.12 30.72 712.192 30.72 637.44v-506.368C30.72 55.808 91.648-5.12 166.4-5.12h690.688c74.752 0 135.68 60.928 135.68 135.68v506.88C993.28 712.192 932.352 773.12 857.6 773.12z m-10.24-716.8h-670.72c-46.592 0-84.48 37.888-84.48 84.48v486.4C92.16 673.792 130.048 711.68 176.64 711.68h670.208c46.592 0 84.48-37.888 84.48-84.48v-129.536l-243.2-243.2L428.544 404.48c-14.848 8.192-33.28 3.584-41.984-11.264 0-0.512-0.512-0.512-0.512-1.024l-190.464-190.464c-11.776-11.776-11.776-31.744 0-43.52s31.744-11.776 43.52 0L419.84 338.944l254.976-147.456c9.216-5.12 19.968-5.12 29.184-1.024 6.144 1.024 12.288 3.584 16.896 8.704L931.84 410.624v-269.824c0-46.592-37.888-84.48-84.48-84.48z"  horiz-adv-x="1024" />

    
    <glyph glyph-name="LiRa_time" unicode="&#59107;" d="M512 870.4C243.2 870.4 25.6 652.8 25.6 384s217.6-486.4 486.4-486.4 486.4 217.6 486.4 486.4-217.6 486.4-486.4 486.4z m0-911.36c-234.496 0-424.96 190.464-424.96 424.96s190.464 424.96 424.96 424.96 424.96-190.464 424.96-424.96-190.464-424.96-424.96-424.96zM695.296 218.112L542.72 370.688V684.544c0 16.896-13.824 30.72-30.72 30.72s-30.72-13.824-30.72-30.72v-319.488c0-1.536 0-2.56 0.512-4.096-1.024-8.704 2.048-17.92 8.704-24.576l161.28-161.28c11.776-11.776 31.744-11.776 43.52 0s12.288 31.232 0 43.008z"  horiz-adv-x="1024" />

    
    <glyph glyph-name="LiRa_setup" unicode="&#59108;" d="M656.896-71.68c-17.408 0-34.816 7.168-45.568 19.456-14.848 16.384-62.464 59.392-101.376 59.392s-87.04-43.008-100.864-58.368c-10.752-11.776-28.16-18.944-45.568-18.944-8.192 0-15.872 1.536-23.04 4.608l-1.024 0.512-118.272 66.048-1.024 1.024c-21.504 14.848-29.696 44.544-18.944 68.608 0 0 10.752 25.088 10.752 48.128 0 69.12-56.32 125.44-125.44 125.44H81.92c-19.968 0-35.84 17.408-40.96 45.056-0.512 2.048-10.24 53.76-10.24 94.72s9.728 92.16 10.24 94.72c5.12 27.648 21.504 45.568 41.984 45.056h4.096c69.12 0 125.44 56.32 125.44 125.44 0 23.04-10.752 47.616-10.752 48.128-10.752 24.064-2.56 53.76 19.456 68.608l1.024 1.024L345.6 834.56l1.536 0.512c7.168 3.072 14.848 4.608 23.04 4.608 17.408 0 34.304-7.168 45.568-18.432 14.848-15.36 61.44-55.808 99.328-55.808 37.376 0 83.968 39.424 98.816 54.784 11.264 11.264 27.648 18.432 45.056 18.432 8.192 0 16.384-1.536 23.552-4.608l1.024-0.512 120.832-67.072 1.024-1.024c21.504-14.848 29.696-44.544 18.944-68.608 0 0-10.752-25.088-10.752-48.128 0-69.12 56.32-125.44 125.44-125.44h4.096c19.968 0.512 36.864-17.408 41.984-45.056 0.512-2.048 10.24-53.76 10.24-94.72s-9.728-92.16-10.24-94.72c-5.12-27.648-21.504-45.056-41.984-45.056h-4.096c-69.12 0-125.44-56.32-125.44-125.44 0-23.04 10.752-47.616 10.752-48.128 10.752-24.064 2.56-53.76-18.944-68.608l-1.024-1.024L680.96-66.56l-1.024-0.512c-7.68-3.072-15.36-4.608-23.04-4.608z m-7.168 66.56c0.512-0.512 2.048-1.024 3.584-1.024l112.128 61.952c-2.56 6.144-14.848 36.864-14.848 68.608 0 95.232 74.752 173.056 168.96 178.176 1.536 7.68 8.704 49.664 8.704 80.896 0 31.744-7.168 73.728-8.704 80.896-93.696 5.12-168.96 82.944-168.96 178.176 0 31.744 12.288 62.464 14.848 68.608l-110.08 61.44h-0.512c-2.048 0-3.584-0.512-4.096-1.024-2.048-2.048-17.92-17.92-40.96-34.304-33.792-24.064-66.048-35.84-95.744-35.84s-61.952 12.288-96.256 36.864c-23.04 16.384-38.912 32.768-40.96 34.816-0.512 0.512-2.56 1.024-4.096 1.024h-0.512L258.56 711.168c2.56-6.144 14.848-36.864 14.848-68.608 0-95.232-74.752-173.056-168.96-178.176-1.536-7.68-8.704-49.664-8.704-80.896 0-31.744 7.168-73.728 8.704-80.896 93.696-5.12 168.96-82.944 168.96-178.176 0-31.744-12.288-62.464-15.36-68.608l108.032-60.416c1.536 0 3.072 0.512 3.584 1.024 2.048 2.048 17.92 19.456 41.472 36.352 34.816 25.6 67.584 38.4 97.792 38.4 30.72 0 64-13.312 98.816-38.912 23.552-17.408 39.936-34.816 41.984-37.376z m-139.776 225.792c-90.112 0-163.328 73.216-163.328 163.328S419.84 547.84 509.952 547.84s163.328-73.216 163.328-163.328-73.216-163.84-163.328-163.84z m0 260.608c-53.76 0-97.28-43.52-97.28-97.28s43.52-97.28 97.28-97.28 97.28 43.52 97.28 97.28-43.52 97.28-97.28 97.28z"  horiz-adv-x="1024" />

    
    <glyph glyph-name="LiRa_user" unicode="&#59109;" d="M512 870.4C243.2 870.4 25.6 652.8 25.6 384c0-136.704 56.32-260.608 147.456-348.672 17.92-17.408 36.864-33.28 57.344-48.128 79.36-56.32 176.64-89.6 281.6-89.6s202.24 33.28 281.6 89.6c20.48 14.336 39.424 30.72 57.344 48.128C942.08 123.392 998.4 247.296 998.4 384c0 268.8-217.6 486.4-486.4 486.4z m0-911.36c-103.424 0-197.632 36.864-271.36 97.792 32.768 119.296 141.824 206.848 271.36 206.848s238.592-87.552 271.36-206.848c-73.728-60.928-167.936-97.792-271.36-97.792zM378.88 460.8c0 73.728 59.392 133.12 133.12 133.12s133.12-59.392 133.12-133.12-59.392-133.12-133.12-133.12-133.12 59.392-133.12 133.12z m453.632-355.84c-35.84 92.672-110.08 166.4-203.776 199.68 47.616 35.328 78.336 92.16 78.336 156.16 0 107.52-87.04 194.56-194.56 194.56S317.44 568.32 317.44 460.8c0-64 30.72-120.32 78.336-156.16-93.696-33.792-168.448-107.008-203.776-199.68C126.464 179.712 87.04 276.992 87.04 384c0 234.496 190.464 424.96 424.96 424.96s424.96-190.464 424.96-424.96c0-107.008-39.424-204.288-104.448-279.04z"  horiz-adv-x="1024" />

    
    <glyph glyph-name="LiRa_shopping" unicode="&#59110;" d="M846.336 265.728c6.656 0.512 12.8 3.072 17.408 7.168 6.144 4.608 10.752 11.776 12.288 20.48l91.136 358.912c2.048 14.848-7.168 34.304-20.992 38.4-4.608 2.56-9.728 4.096-14.848 4.096H303.616c-16.896 0-30.72-13.824-30.72-30.72s13.824-30.72 30.72-30.72h594.432l-76.8-307.2-525.824-14.848-68.096 408.064c-3.072 14.336-15.872 24.576-30.208 24.576L87.04 775.68c-16.384 4.608-33.28-0.512-37.888-16.896s5.632-33.28 22.016-37.888l109.056-32.768L263.68 153.6c-29.184-22.528-48.128-57.856-48.128-97.28 0-68.096 55.296-122.88 122.88-122.88s122.88 55.296 122.88 122.88c0 29.184-10.24 55.296-26.624 76.288l225.792-8.192c-13.312-19.456-20.992-43.008-20.992-68.608 0-68.096 55.296-122.88 122.88-122.88 68.096 0 122.88 55.296 122.88 122.88 0 52.736-33.28 97.792-80.384 115.2-5.632 6.144-17.92 9.728-26.624 10.24l-460.8 16.384c-1.536 0 0.512-0.512-1.024-0.512l-6.656 52.224 536.576 16.384z m-507.392-275.456c-36.864 0-66.56 29.696-66.56 66.56s29.696 66.56 66.56 66.56 66.56-29.696 66.56-66.56-29.696-66.56-66.56-66.56z m424.448 0c-36.864 0-66.56 29.696-66.56 66.56s29.696 66.56 66.56 66.56 66.56-29.696 66.56-66.56-29.696-66.56-66.56-66.56z"  horiz-adv-x="1024" />

    
    <glyph glyph-name="LiRa_dad" unicode="&#59111;" d="M79.872 481.792l452.608-452.608c13.824-13.824 13.824-36.864 0-50.688s-36.864-13.824-50.688 0L29.184 431.104c-13.824 13.824-13.824 36.864 0 50.688 13.824 14.336 36.352 14.336 50.688 0zM984.576 431.104l-452.608-452.608c-13.824-13.824-36.864-13.824-50.688 0s-13.824 36.864 0 50.688l452.608 452.608c13.824 13.824 36.864 13.824 50.688 0 14.336-13.824 14.336-36.352 0-50.688zM90.112 788.992l452.608-452.608c13.824-13.824 13.824-36.864 0-50.688s-36.864-13.824-50.688 0L39.424 738.304c-13.824 13.824-13.824 36.864 0 50.688 13.824 14.336 36.352 14.336 50.688 0zM994.816 738.304l-452.608-452.608c-13.824-13.824-36.864-13.824-50.688 0s-13.824 36.864 0 50.688l452.608 452.608c13.824 13.824 36.864 13.824 50.688 0 14.336-13.824 14.336-36.352 0-50.688z"  horiz-adv-x="1024" />

    
    <glyph glyph-name="LiRa_scan" unicode="&#59112;" d="M862.72 811.52h-266.24c-16.896 0-30.72-13.824-30.72-30.72s13.824-30.72 30.72-30.72h245.76c22.528 0 40.96-18.432 40.96-40.96v-230.4c0-16.896 13.824-30.72 30.72-30.72s30.72 13.824 30.72 30.72v250.88c0 45.056-36.864 81.92-81.92 81.92zM422.4 811.52h-266.24c-45.056 0-81.92-36.864-81.92-81.92v-250.88c0-16.896 13.824-30.72 30.72-30.72s30.72 13.824 30.72 30.72v230.4c0 22.528 18.432 40.96 40.96 40.96h245.76c16.896 0 30.72 13.824 30.72 30.72s-13.824 30.72-30.72 30.72zM156.16-43.52h266.24c16.896 0 30.72 13.824 30.72 30.72s-13.824 30.72-30.72 30.72h-245.76c-22.528 0-40.96 18.432-40.96 40.96v230.4c0 16.896-13.824 30.72-30.72 30.72s-30.72-13.824-30.72-30.72v-250.88c0-45.056 36.864-81.92 81.92-81.92zM596.48-43.52h266.24c45.056 0 81.92 36.864 81.92 81.92v250.88c0 16.896-13.824 30.72-30.72 30.72s-30.72-13.824-30.72-30.72v-230.4c0-22.528-18.432-40.96-40.96-40.96h-245.76c-16.896 0-30.72-13.824-30.72-30.72s13.824-30.72 30.72-30.72zM970.24 350.72h-911.36c-16.896 0-35.84 13.824-35.84 30.72s18.944 30.72 35.84 30.72h911.36c16.896 0 30.72-13.824 30.72-30.72s-13.824-30.72-30.72-30.72z"  horiz-adv-x="1024" />

    
    <glyph glyph-name="LiRa_list" unicode="&#59113;" d="M388.096 826.88h-245.76c-45.056 0-81.92-36.864-81.92-81.92v-245.76c0-45.056 36.864-81.92 81.92-81.92h245.76c45.056 0 81.92 36.864 81.92 81.92v245.76c0 45.056-36.864 81.92-81.92 81.92zM410.624 517.12c0-22.528-18.432-40.96-40.96-40.96h-204.8c-22.528 0-40.96 18.432-40.96 40.96V721.92c0 22.528 18.432 40.96 40.96 40.96h204.8c22.528 0 40.96-18.432 40.96-40.96v-204.8zM388.096 350.72h-245.76c-45.056 0-81.92-36.864-81.92-81.92v-245.76c0-45.056 36.864-81.92 81.92-81.92h245.76c45.056 0 81.92 36.864 81.92 81.92v245.76c0 45.056-36.864 81.92-81.92 81.92z m22.528-309.76c0-22.528-18.432-40.96-40.96-40.96h-204.8c-22.528 0-40.96 18.432-40.96 40.96v204.8c0 22.528 18.432 40.96 40.96 40.96h204.8c22.528 0 40.96-18.432 40.96-40.96v-204.8zM932.864 675.84h-343.04c-16.896 0-30.72 13.824-30.72 30.72s13.824 30.72 30.72 30.72h343.04c16.896 0 30.72-13.824 30.72-30.72s-13.312-30.72-30.72-30.72zM932.864 517.12h-343.04c-16.896 0-30.72 13.824-30.72 30.72s13.824 30.72 30.72 30.72h343.04c16.896 0 30.72-13.824 30.72-30.72s-13.312-30.72-30.72-30.72zM932.864 194.56h-343.04c-16.896 0-30.72 13.824-30.72 30.72s13.824 30.72 30.72 30.72h343.04c16.896 0 30.72-13.824 30.72-30.72s-13.312-30.72-30.72-30.72zM932.864 30.72h-343.04c-16.896 0-30.72 13.824-30.72 30.72s13.824 30.72 30.72 30.72h343.04c16.896 0 30.72-13.824 30.72-30.72s-13.312-30.72-30.72-30.72z"  horiz-adv-x="1024" />

    
    <glyph glyph-name="LiRa_phone" unicode="&#59114;" d="M737.28 819.2H286.72c-45.056 0-81.92-36.864-81.92-81.92v-706.56c0-45.056 36.864-81.92 81.92-81.92h450.56c45.056 0 81.92 36.864 81.92 81.92V737.28c0 45.056-36.864 81.92-81.92 81.92z m20.48-768c0-22.528-18.432-40.96-40.96-40.96H307.2c-22.528 0-40.96 18.432-40.96 40.96V716.8c0 22.528 18.432 40.96 40.96 40.96h409.6c22.528 0 40.96-18.432 40.96-40.96v-665.6zM503.296 819.2v-61.44M225.28 687.616h581.12v-61.44H225.28zM222.72 193.024H803.84v-61.44H222.72zM513.024 68.608m-40.96 0a40.96 40.96 0 1 1 81.92 0 40.96 40.96 0 1 1-81.92 0Z"  horiz-adv-x="1024" />

    
    <glyph glyph-name="LiRa_search" unicode="&#59115;" d="M437.76 818.688c-203.776 0-368.64-164.864-368.64-368.64s164.864-368.64 368.64-368.64 368.64 164.864 368.64 368.64c0 203.264-164.864 368.64-368.64 368.64z m0-673.792c-168.448 0-304.64 136.192-304.64 304.64s136.192 304.64 304.64 304.64S742.4 617.984 742.4 449.536c0-167.936-136.192-304.64-304.64-304.64zM893.44-39.936l-229.888 229.888c-13.824 13.824-13.824 36.864 0 50.688s36.864 13.824 50.688 0l229.888-229.888c13.824-13.824 13.824-36.864 0-50.688s-36.864-13.824-50.688 0z"  horiz-adv-x="1024" />

    
    <glyph glyph-name="LiRa_service" unicode="&#59116;" d="M936.96 287.232c0-18.944-15.36-34.816-34.816-34.816h-79.36V480.768h79.36c18.944 0 34.816-15.36 34.816-34.816v-158.72z m-503.808-207.36c-6.656 51.712 37.376 95.744 89.088 89.088 35.328-4.608 64-32.768 68.608-68.608 6.656-51.712-37.376-95.744-89.088-89.088-35.328 4.608-64 33.28-68.608 68.608z m-232.448 173.056H121.856c-18.944 0-34.816 15.36-34.816 34.816v158.72c0 18.944 15.36 34.816 34.816 34.816h79.36v-228.352z m691.2 286.72h-71.168c-17.408 155.648-148.992 276.48-309.248 276.48s-291.84-120.832-309.248-276.48H132.096c-57.344 0-103.424-46.592-103.424-103.424v-138.24c0-57.344 46.592-103.936 103.424-103.936h102.4c14.336 0 25.6 11.264 25.6 25.6v281.6c0 129.024 100.864 256 248.832 255.488 154.112-0.512 255.488-113.664 255.488-251.904v-241.664c0-80.384-50.176-165.376-116.736-210.432 20.48 80.384-35.84 167.424-108.032 173.056-8.704 2.048-17.92 2.56-27.136 2.56-79.872 0-144.384-68.096-137.728-149.504 5.632-71.68 73.728-131.072 143.872-126.976 140.288 7.68 266.24 104.96 297.472 241.664h77.312c57.344 0 103.424 46.592 103.424 103.936v138.24c-1.024 57.344-47.616 103.936-104.96 103.936z"  horiz-adv-x="1024" />

    
    <glyph glyph-name="LiRa_telephone" unicode="&#59117;" d="M759.296 233.984c-12.8 9.216-31.232 9.216-40.96-3.072l-72.192-69.12c-9.216-9.216-25.088-12.8-37.888-6.144-69.12 37.888-132.096 84.992-185.344 138.24-53.248 53.248-100.352 116.224-138.24 185.344-5.632 12.288-2.56 27.648 7.168 37.376L364.032 588.8c12.8 12.8 12.8 28.16 3.072 40.96L266.752 752.128s0 3.072-3.072 3.072c-12.8 12.8-31.232 12.8-44.032 0L134.656 670.208c-40.96-40.96 62.976-235.52 244.736-420.864s379.904-285.696 420.864-244.736l84.992 84.992 3.072 3.072c9.216 12.8 9.216 34.304-6.144 44.032l-122.88 97.28z m-84.48 44.032c34.304 34.304 88.064 37.888 125.44 6.144l122.368-97.28c40.96-31.232 47.104-91.136 15.872-132.096-3.072-3.072-3.072-6.144-6.144-6.144l-84.992-84.992c-81.408-81.408-301.568 34.304-511.488 244.736S12.288 635.904 90.624 717.312l84.992 84.992c37.888 37.888 97.28 37.888 132.096 0l6.144-6.144 97.28-122.368c31.232-37.888 28.16-91.136-6.144-125.44L351.232 494.592c34.304-56.32 72.192-106.496 116.224-150.528 44.032-44.032 94.208-81.408 150.528-116.224l56.832 50.176zM564.736 701.44c-18.944 0-31.232 12.8-31.232 31.232s12.8 31.232 31.232 31.232c172.544 0 313.856-141.312 313.856-313.856 0-18.944-12.8-31.232-31.232-31.232-18.944 0-31.232 12.8-31.232 31.232 0 138.752-113.152 251.392-251.392 251.392z m0-125.44c-18.944 0-31.232 12.8-31.232 31.232s12.8 31.232 31.232 31.232c103.424 0 188.416-84.992 188.416-188.416 0-18.944-12.8-31.232-31.232-31.232-18.944 0-31.232 12.8-31.232 31.232-0.512 69.632-56.832 125.952-125.952 125.952z"  horiz-adv-x="1024" />

    
    <glyph glyph-name="LiRa_cloud-download" unicode="&#59118;" d="M815.104 641.536c-68.608 158.72-260.096 234.496-428.032 169.472-80.896-31.744-145.408-92.672-178.688-169.472C97.792 616.96 19.968 522.752 20.48 415.232c0-128.512 110.08-232.96 245.76-232.96h93.696c17.92 0 32.768 13.824 32.768 31.232 0 17.408-14.848 26.112-32.768 26.112H266.24c-99.328 0-185.344 81.408-185.344 176.128-0.512 83.968 64 161.28 152.064 174.08l19.456 3.072 6.144 17.92c36.352 100.352 141.312 167.936 252.928 167.936 112.128 0 216.576-67.584 252.928-167.936l6.656-17.92 19.456-3.072c87.552-12.8 152.576-89.6 152.064-174.08 0-94.208-86.016-176.128-185.344-176.128h-99.84c-17.92 0-32.768-8.704-32.768-26.112 0-17.408 14.848-31.232 32.768-31.232H757.76c135.68 0 245.76 104.448 245.76 232.96 0.512 107.52-77.312 201.728-188.416 226.304zM653.312 114.176l-108.544-83.968V445.952c0 17.408-14.848 31.232-32.768 31.232-17.92 0-32.768-13.824-32.768-31.232v-416.256l-109.568 84.992c-13.824 10.752-34.816 8.704-46.08-4.096-11.264-13.312-9.216-32.768 4.608-43.52l162.816-126.464c12.288-9.216 29.696-9.216 41.472 0l161.792 125.44c14.336 10.752 16.896 30.208 5.632 43.52s-31.744 15.872-46.08 5.12c0 0-0.512 0-0.512-0.512z"  horiz-adv-x="1024" />

    
    <glyph glyph-name="LiRa_notes" unicode="&#59119;" d="M512 870.4C243.2 870.4 25.6 652.8 25.6 384s217.6-486.4 486.4-486.4 486.4 217.6 486.4 486.4-217.6 486.4-486.4 486.4z m0-911.36c-234.496 0-424.96 190.464-424.96 424.96s190.464 424.96 424.96 424.96 424.96-190.464 424.96-424.96-190.464-424.96-424.96-424.96zM513.024 629.76h-2.048c-16.896 0-30.208-13.312-30.208-30.208v-2.048c0-16.896 13.312-30.208 30.208-30.208h2.048c16.896 0 30.208 13.312 30.208 30.208v2.048c0 16.896-13.312 30.208-30.208 30.208zM543.232 201.728V480.256c0 13.312-10.752 24.064-24.064 24.064h-5.12c-2.048 0-4.096-0.512-6.144-1.024L409.6 476.672c-12.8-3.584-20.48-16.384-16.896-29.184l4.096-14.336c3.584-12.8 16.384-20.48 29.184-16.896l44.544 12.288c5.12 1.536 9.728-2.56 9.728-7.68v-221.696c0-4.608-4.096-8.704-8.704-8.704h-61.44c-13.312 0-24.064-10.752-24.064-24.064v-14.848c0-13.312 10.752-24.064 24.064-24.064h203.264c13.312 0 24.064 10.752 24.064 24.064v14.848c0 13.312-10.752 24.064-24.064 24.064h-58.88c-6.144 0-11.264 5.12-11.264 11.264z"  horiz-adv-x="1024" />

    
    <glyph glyph-name="LiRa_personal" unicode="&#59120;" d="M166.4 773.12C91.648 773.12 30.72 712.192 30.72 637.44v-506.368C30.72 55.808 91.648-5.12 166.4-5.12h690.688c74.752 0 135.68 60.928 135.68 135.68v506.88c0 74.752-60.928 135.68-135.68 135.68H166.4z m680.96-61.44c46.592 0 84.48-37.888 84.48-84.48v-485.888c0-46.592-37.888-84.48-84.48-84.48h-670.72c-46.592 0-84.48 37.888-84.48 84.48V627.2C92.16 673.792 130.048 711.68 176.64 711.68h670.72zM416.768 562.176H198.144c-15.872 0-28.672-13.824-28.672-30.72s12.8-30.72 28.672-30.72h218.624c15.872 0 28.672 13.824 28.672 30.72 0 17.408-12.8 30.72-28.672 30.72zM418.816 223.232H204.288c-16.896 0-30.72 13.824-30.72 30.72s13.824 30.72 30.72 30.72h214.528c16.896 0 30.72-13.824 30.72-30.72s-13.824-30.72-30.72-30.72zM416.768 425.984H198.144c-15.872 0-28.672-13.824-28.672-30.72s12.8-30.72 28.672-30.72h218.624c15.872 0 28.672 13.824 28.672 30.72 0 17.408-12.8 30.72-28.672 30.72zM764.416 375.296c27.136 23.04 45.056 56.832 45.056 95.232 0 69.12-55.808 124.928-124.928 124.928s-124.928-55.808-124.928-124.928c0-38.4 17.92-72.192 45.056-95.232-55.808-29.184-94.72-87.04-94.72-154.624 0-13.824 11.264-25.088 25.088-25.088s25.088 11.264 25.088 25.088c0 69.12 55.808 124.928 124.928 124.928 69.12 0 124.928-55.808 124.928-124.928 0-13.824 11.264-25.088 25.088-25.088s25.088 11.264 25.088 25.088c-1.024 67.584-39.936 125.44-95.744 154.624z m-79.872 19.968c-41.472 0-74.752 33.792-74.752 74.752 0 41.472 33.792 74.752 74.752 74.752s74.752-33.792 74.752-74.752-33.792-74.752-74.752-74.752z"  horiz-adv-x="1024" />

    
    <glyph glyph-name="LiRa_download" unicode="&#59121;" d="M965.12 201.216c-18.944 0-29.696-15.872-29.696-34.816v-142.848H88.576v142.848c0 18.944-10.752 34.816-29.696 34.816s-34.816-15.872-34.816-34.816v-167.424c0-18.944 15.872-34.816 34.816-34.816h906.752c18.944 0 34.816 15.872 34.816 34.816v167.424c0 18.944-15.872 34.816-35.328 34.816zM812.544 489.984c-11.776 11.776-31.744 11.776-43.52 0L542.72 263.68V773.12c0 16.896-13.824 30.72-30.72 30.72s-30.72-13.824-30.72-30.72v-509.44L254.976 489.984c-11.776 11.776-31.744 11.776-43.52 0s-11.776-31.744 0-43.52l276.992-276.992c5.632-6.656 14.336-11.264 23.552-11.264s17.92 4.608 23.552 11.264l276.992 276.992c11.776 12.288 11.776 31.744 0 43.52z"  horiz-adv-x="1024" />

    
    <glyph glyph-name="LiRa_select-files" unicode="&#59122;" d="M762.88 849.92H190.464c-44.032 0-79.872-35.84-79.872-79.872v-772.096c0-44.032 35.84-79.872 79.872-79.872h191.488c18.432 0 33.28 9.728 33.28 28.16s-14.848 33.28-33.28 33.28H211.968c-22.016 0-39.936 17.92-39.936 39.936V748.544c0 22.016 17.92 45.056 39.936 45.056h529.408c22.016 0 39.936-23.04 39.936-45.056v-221.696c0-18.432 9.728-33.28 28.16-33.28s33.28 14.848 33.28 33.28V770.048c0 44.032-35.84 79.872-79.872 79.872zM654.336 627.2H265.728c-16.896 0-30.72 13.824-30.72 30.72s13.824 30.72 30.72 30.72h388.608c16.896 0 30.72-13.824 30.72-30.72s-13.824-30.72-30.72-30.72zM547.84 483.84H269.824c-16.896 0-30.72 13.824-30.72 30.72s13.824 30.72 30.72 30.72H547.84c16.896 0 30.72-13.824 30.72-30.72s-13.824-30.72-30.72-30.72zM612.864 326.656H267.264c-16.896 0-30.72 13.824-30.72 30.72s13.824 30.72 30.72 30.72h345.6c16.896 0 30.72-13.824 30.72-30.72s-13.824-30.72-30.72-30.72zM896 359.424c-15.36 8.192-34.304 3.072-44.544-10.752l-236.032-314.88h-0.512l-188.416 136.704c-13.824 10.24-33.792 9.216-46.08-3.072-14.336-14.848-11.776-38.4 4.608-49.664l217.6-157.184c14.848-10.752 36.352-7.68 47.616 7.168v0.512l0.512 0.512 257.024 342.528c11.264 14.848 6.656 37.888-11.776 48.128z"  horiz-adv-x="1024" />

    
    <glyph glyph-name="LiRa_forward" unicode="&#59123;" d="M947.2 357.888c0 16.896-13.824 30.208-30.72 30.208s-30.208-13.312-30.72-30.208v-243.712c0-70.656-57.344-128-128-128H225.28c-70.144 0-128 57.344-128 128v501.76c0 73.216 59.904 133.12 133.12 133.12h263.68v0.512h1.536c16.896 0 30.72 13.824 30.72 30.72s-13.824 30.72-30.72 30.72H215.04c-98.304 0-179.2-80.896-179.2-179.2v-527.36c0-98.304 80.896-179.2 179.2-179.2h552.96c98.304 0 179.2 80.896 179.2 179.2v253.44zM704 843.264c-16.896 0-30.72-13.312-31.232-30.208 0-16.896 13.312-30.72 30.208-31.232l180.224-2.048L440.32 363.52c-12.288-11.776-12.288-31.232-0.512-43.52 11.776-12.288 31.232-12.288 43.52-0.512l442.88 416.256-2.048-181.248c0-16.896 13.312-30.72 30.208-31.232 16.896 0 30.72 13.312 31.232 30.208l3.072 253.952v0.512 0.512c0 2.048 0 3.584-0.512 5.12V814.08c-0.512 1.536-0.512 3.072-1.536 4.608 0 0.512-0.512 1.024-0.512 1.536-0.512 1.024-1.024 2.048-1.536 3.584-0.512 1.024-1.024 1.536-1.536 2.56-0.512 1.024-1.024 1.536-2.048 2.56-0.512 0.512-0.512 1.024-1.024 1.536-0.512 0.512-1.024 0.512-1.024 1.024l-2.048 2.048c-1.024 0.512-1.536 1.024-2.56 1.536l-3.072 1.536c-0.512 0-1.024 0.512-1.536 0.512l-4.608 1.536h-0.512c-1.536 0.512-3.584 0.512-5.12 0.512l-255.488 4.096z"  horiz-adv-x="1024" />

    
    <glyph glyph-name="LiRa_also1" unicode="&#59124;" d="M512 870.4C243.2 870.4 25.6 652.8 25.6 384s217.6-486.4 486.4-486.4 486.4 217.6 486.4 486.4-217.6 486.4-486.4 486.4z m-5.12-773.632c-23.04 0-41.984 18.432-41.984 41.984s18.432 41.984 41.984 41.984 41.984-18.432 41.984-41.984-18.944-41.984-41.984-41.984z m37.888 167.424c0-29.696-7.68-54.272-37.888-54.272s-37.888 24.576-37.888 54.272l-16.896 296.96c0 29.696 24.576 54.272 54.272 54.272s54.272-24.576 54.272-54.272l-15.872-296.96z"  horiz-adv-x="1024" />

    
    <glyph glyph-name="LiRa_help1" unicode="&#59125;" d="M512 870.4C243.2 870.4 25.6 652.8 25.6 384s217.6-486.4 486.4-486.4 486.4 217.6 486.4 486.4-217.6 486.4-486.4 486.4z m47.616-758.272c-4.096-8.704-11.264-15.36-19.456-19.456-46.592-22.528-92.16 23.04-69.632 69.632 4.096 8.192 11.264 15.36 19.456 19.456 46.592 22.528 92.16-23.04 69.632-69.632z m-7.168 214.528c-5.12-0.512-8.192-4.608-8.192-9.216v-34.304c0-15.872-12.8-28.672-28.672-28.672h-5.12c-15.872 0-28.672 12.8-28.672 28.672v72.704c0 15.872 12.8 28.672 28.672 28.672 55.808 0 105.984 50.176 105.984 105.984 0 55.808-50.176 105.984-105.984 105.984h-0.512c-48.128 0-92.16-37.888-102.912-83.968-3.072-12.8-14.336-22.528-27.648-22.528h-4.608c-18.944 0-32.256 16.384-28.672 34.304 15.872 76.288 83.456 133.632 164.352 134.144h0.512c92.672 0 168.448-75.264 168.448-168.448 0-77.312-52.736-144.384-126.976-163.328z"  horiz-adv-x="1024" />

    
    <glyph glyph-name="LiRa_notes1" unicode="&#59126;" d="M512 870.4C243.2 870.4 25.6 652.8 25.6 384s217.6-486.4 486.4-486.4 486.4 217.6 486.4 486.4-217.6 486.4-486.4 486.4z m-31.232-270.848c0 16.896 13.312 30.208 30.208 30.208h2.048c16.896 0 30.208-13.312 30.208-30.208v-2.048c0-16.896-13.312-30.208-30.208-30.208h-2.048c-16.896 0-30.208 13.312-30.208 30.208v2.048z m156.672-448c0-13.312-10.752-24.064-24.064-24.064H410.112c-13.312 0-24.064 10.752-24.064 24.064v14.848c0 13.312 10.752 24.064 24.064 24.064h61.44c4.608 0 8.704 4.096 8.704 8.704V420.864c0 5.12-4.608 9.216-9.728 7.68l-44.544-12.288c-12.8-3.584-25.6 4.096-29.184 16.896l-4.096 14.336c-3.584 12.8 4.096 25.6 16.896 29.184l98.304 26.624c2.048 0.512 4.096 1.024 6.144 1.024h5.12c13.312 0 24.064-10.752 24.064-24.064v-278.528c0-6.144 5.12-11.264 11.264-11.264h58.88c13.312 0 24.064-10.752 24.064-24.064v-14.848z"  horiz-adv-x="1024" />

    
    <glyph glyph-name="LiRa_cross2" unicode="&#59127;" d="M512 870.4C243.2 870.4 25.6 652.8 25.6 384s217.6-486.4 486.4-486.4 486.4 217.6 486.4 486.4-217.6 486.4-486.4 486.4z m181.248-625.152c11.776-11.776 11.776-31.744 0-43.52s-31.744-11.776-43.52 0l-138.24 138.24-138.24-138.24c-11.776-11.776-31.744-11.776-43.52 0s-11.776 31.744 0 43.52l138.24 138.24-138.24 138.24c-11.776 11.776-11.776 31.744 0 43.52s31.744 11.776 43.52 0l138.24-138.24 138.24 138.24c11.776 11.776 31.744 11.776 43.52 0 12.288-11.776 12.288-31.232 0-43.52l-138.24-138.24 138.24-138.24z"  horiz-adv-x="1024" />

    
    <glyph glyph-name="LiRa_edit1" unicode="&#58882;" d="M344.576 114.68799999999999c5.632 1.536 10.752 4.096 14.336 8.192L680.96 443.904c1.536 1.536 3.072 3.072 4.096 5.12L793.6 556.0319999999999c12.288 12.288 12.288 31.744 0.512 44.032l-151.552 156.672c-5.632 6.144-13.824 9.216-22.016 9.728-8.192 0-16.384-3.072-22.528-8.704L483.84 645.12l-326.144-331.264c-4.096-4.096-7.168-9.728-8.192-15.872L109.056 102.39999999999998c-2.048-10.752 1.024-21.504 9.216-29.184 6.144-5.632 13.824-8.704 21.504-8.704 2.56 0 5.12 0.512 7.68 1.024l197.12 49.152zM619.52 690.688l108.032-111.616-68.608-67.584-109.568 111.104L619.52 690.688z m-411.648-414.72l297.472 302.08 109.568-111.616-293.888-292.864-141.312-35.328 28.16 137.728zM920.576 64.51199999999994H103.424c-17.408 0-31.232-13.824-31.232-31.232 0-17.408 13.824-31.232 31.232-31.232h816.64c17.408 0 31.232 13.824 31.232 31.232 0.512 16.896-13.824 31.232-30.72 31.232z"  horiz-adv-x="1024" />

    
    <glyph glyph-name="LiRa_add" unicode="&#59129;" d="M967.68 414.72h-424.96V839.68c0 16.896-14.336 30.72-30.72 30.72-16.896 0-30.72-14.336-30.72-30.72v-424.96H56.32c-16.896 0-30.72-14.336-30.72-30.72s14.336-30.72 30.72-30.72h424.96v-424.96c0-16.896 14.336-30.72 30.72-30.72 16.896 0 30.72 14.336 30.72 30.72v424.96h424.96c16.896 0 30.72 14.336 30.72 30.72 0 16.896-13.824 30.72-30.72 30.72z"  horiz-adv-x="1024" />

    
    <glyph glyph-name="LiRa_check2" unicode="&#59130;" d="M933.888 643.072c-11.776 11.776-31.744 11.776-43.52 0l-452.608-452.608-304.128 304.128c-11.776 11.776-31.744 11.776-43.52 0s-11.776-31.744 0-43.52l325.632-325.632c11.776-11.776 31.744-11.776 43.52 0l474.112 474.112c12.288 11.776 12.288 31.232 0.512 43.52z"  horiz-adv-x="1024" />

    
    <glyph glyph-name="LiRa_Load" unicode="&#59135;" d="M100.864 387.584c-28.16 0-51.2 23.04-51.2 51.2 0 224.768 183.296 408.064 408.064 408.064 28.16 0 51.2-23.04 51.2-51.2s-23.04-51.2-51.2-51.2c-168.448 0-305.664-137.216-305.664-305.664 0-28.16-23.04-51.2-51.2-51.2z"  horiz-adv-x="1024" />

    
    <glyph glyph-name="LiRa_Load1" unicode="&#59136;" d="M512.512-40.96c-49.152 0-97.792 8.704-144.384 25.6-8.192 3.072-12.288 11.776-9.216 19.456s11.776 12.288 19.456 9.216c43.008-15.872 88.576-23.552 134.144-23.552 57.856 0 114.176 12.288 166.912 37.376 7.68 3.584 16.896 0.512 20.48-7.168 3.584-7.68 0.512-16.896-7.168-20.48 0 0-0.512 0-0.512-0.512-57.344-26.624-117.76-39.936-179.712-39.936z m-371.712 235.52c-5.632 0-10.752 3.072-13.824 8.704v0.512c-26.624 57.344-40.448 117.76-40.448 180.224 0 49.664 8.704 98.304 25.6 144.896 3.072 8.192 11.776 12.288 19.456 9.216 8.192-3.072 12.288-11.776 9.216-19.456-15.872-43.52-23.552-88.576-23.552-134.656 0-57.856 12.288-114.176 37.376-166.912 3.584-7.68 0.512-16.896-7.168-20.48-2.048-1.536-4.096-2.048-6.656-2.048z m756.224 34.816c-1.536 0-3.584 0.512-5.12 1.024-8.192 3.072-12.288 11.776-9.216 19.456 15.872 43.52 23.552 88.576 23.552 134.144 0 57.856-12.288 114.176-37.376 166.912-3.584 7.68-0.512 16.896 7.168 20.48 7.68 3.584 16.384 0.512 20.48-6.656l0.512-1.024c26.624-56.32 39.936-117.248 39.936-179.2 0-49.664-8.704-98.304-25.6-144.896-2.048-6.144-7.68-10.24-14.336-10.24zM338.432 739.84c-5.632 0-11.264 3.072-13.824 8.704-3.584 7.68-0.512 16.384 6.656 20.48C389.12 795.648 449.536 808.96 511.488 808.96c49.664 0 98.304-8.704 144.896-25.6 8.192-3.072 12.288-11.776 9.216-19.456-3.072-8.192-11.776-12.288-19.456-9.216-43.52 15.872-88.576 23.552-134.656 23.552-57.856 0-114.176-12.288-166.912-37.376-1.536-0.512-4.096-1.024-6.144-1.024z"  horiz-adv-x="1024" />

    
    <glyph glyph-name="LiRa_right02" unicode="&#58886;" d="M398.499 659.5l274.256-274.256-274.256-274.256z"  horiz-adv-x="1024" />

    
    <glyph glyph-name="LiRa_down02" unicode="&#58887;" d="M171.151 554.998h684.022L513.157 213.00199999999995 171.151 554.998z"  horiz-adv-x="1024" />

    
    <glyph glyph-name="LiRa_like1" unicode="&#59137;" d="M716.288 801.28c-79.36 0-154.624-37.376-204.288-94.72-49.664 58.368-125.44 94.72-204.288 94.72-140.8 0-250.368-110.592-250.368-250.368 0-171.008 154.624-312.32 388.608-524.288l66.048-59.904 66.048 59.904c233.984 211.968 388.608 352.768 388.608 524.288 0 140.8-110.592 250.368-250.368 250.368z"  horiz-adv-x="1024" />

    
    <glyph glyph-name="LiRa_user1" unicode="&#59138;" d="M649.728 356.864c76.288 44.544 127.488 126.976 127.488 221.696 0 141.312-114.688 256-256 256s-256-114.688-256-256c0-92.16 48.64-172.544 121.344-217.6-176.128-50.176-309.76-202.24-331.776-388.096-0.512-2.56-1.024-5.12-1.024-7.68v-0.512c0.512-16.896 13.824-30.208 30.72-30.208s30.208 13.312 30.72 30.208h0.512c23.552 198.144 192 352.256 396.288 352.256 204.8 0 373.248-154.112 396.288-352.256 0-16.896 13.824-30.72 30.72-30.72s30.72 13.824 30.72 30.72h0.512c-18.944 185.344-147.968 338.432-320.512 392.192zM326.656 578.56c0 107.52 87.04 194.56 194.56 194.56s194.56-87.04 194.56-194.56-87.04-194.56-194.56-194.56-194.56 87.04-194.56 194.56z"  horiz-adv-x="1024" />

    
    <glyph glyph-name="LiRa_video" unicode="&#59131;" d="M941.056 627.712c-10.752 6.144-23.552 5.632-34.304-0.512l-181.248-97.28c-10.24-6.144-16.384-16.896-16.384-29.184v-303.104c0-12.288-10.24-22.528-22.528-22.528H155.648c-12.288 0-22.528 10.24-22.528 22.528V569.856c0 12.288 10.24 22.528 22.528 22.528h493.056c18.432 0 33.792 15.36 33.792 33.792 0 18.432-15.36 33.792-33.792 33.792H155.648c-49.664 0-90.112-40.448-90.112-90.112v-371.712c0-49.664 40.448-90.112 90.112-90.112h530.944c49.664 0 90.112 40.448 90.112 90.112v26.624l130.56-65.536c5.12-3.072 10.752-4.608 16.896-4.608 5.632 0 11.776 1.536 16.896 4.608 10.24 6.144 16.896 17.408 16.896 29.184v409.6c0.512 12.288-6.144 23.552-16.896 29.696z m-50.176-380.928l-113.664 52.224V481.792l113.664 56.32v-291.328zM248.32 482.816m-59.392 0a59.392 59.392 0 1 1 118.784 0 59.392 59.392 0 1 1-118.784 0Z"  horiz-adv-x="1024" />

    
    <glyph glyph-name="LiRa_copyright" unicode="&#58889;" d="M512 815.104c-237.568 0-431.104-193.536-431.104-431.104 0-237.568 193.536-431.104 431.104-431.104 237.568 0 431.104 193.536 431.104 431.104 0 237.568-193.536 431.104-431.104 431.104z m0-800.768c-203.776 0-369.664 165.888-369.664 369.664S308.224 753.664 512 753.664s369.664-165.888 369.664-369.664-165.888-369.664-369.664-369.664zM512 587.776c56.32 0 108.032-23.04 144.896-60.416 5.12-11.776 16.384-20.48 30.208-20.48 17.92 0 32.768 14.848 32.768 32.768 0 4.096-0.512 7.68-2.048 11.264 0 0 0 0.512-0.512 0.512-3.072 7.68-8.704 14.336-15.872 17.92-48.128 49.664-115.712 80.384-189.952 80.384-146.432 0-265.216-119.296-265.216-265.216 0-146.432 119.296-265.216 265.216-265.216 73.728 0 140.8 30.72 188.928 79.36 8.192 3.584 14.336 10.752 16.896 18.944 1.024 3.584 1.536 6.656 1.536 10.752 0 17.92-14.848 32.768-32.768 32.768-13.824 0-25.088-8.192-30.208-19.968-36.864-37.376-88.064-60.416-144.896-60.416-112.64 0-203.776 91.648-203.776 203.776 1.024 112.128 92.16 203.264 204.8 203.264z"  horiz-adv-x="1024" />

    
    <glyph glyph-name="LiRa_qq" unicode="&#58890;" d="M188.416 322.048c-27.648-69.12-32.256-134.656-9.728-146.944 15.36-8.704 39.424 10.752 61.952 46.08 9.216-38.912 31.232-73.216 62.976-101.376-33.28-12.8-54.784-33.792-54.784-57.856 0-39.424 58.368-71.168 131.072-71.168 65.024 0 119.296 25.6 129.024 59.392h15.36c10.24-33.792 64-59.392 129.536-59.392 72.192 0 131.072 31.744 131.072 71.168 0 24.064-21.504 44.544-54.784 57.856 31.744 28.16 53.76 62.464 62.464 101.376 22.528-35.328 46.592-54.784 61.952-46.08 22.528 12.288 17.92 77.824-10.24 146.944-22.016 53.76-51.2 93.696-74.24 102.912 2.56 23.04-2.56 46.592-14.336 66.56 0.512 10.24-1.024 20.48-5.632 30.208-5.632 140.8-92.672 252.416-233.472 252.416S288.768 662.528 283.136 521.728c-4.096-8.192-6.144-17.408-6.144-26.624v-3.584c-9.728-16.896-14.848-36.352-14.848-55.808 0-3.584 0-7.168 0.512-10.24-23.04-9.728-52.736-49.152-74.24-103.424z"  horiz-adv-x="1024" />

    
    <glyph glyph-name="LiRa_weibo" unicode="&#58891;" d="M878.08 651.776c-55.808 62.976-140.288 86.528-214.528 70.144-18.432-4.608-28.16-20.992-25.6-39.424 4.608-18.432 20.992-28.16 39.424-25.6 53.76 11.776 114.176-4.608 154.112-49.152s51.2-104.96 32.768-158.72c-2.56-9.216-2.56-16.384 2.56-25.6 4.608-7.168 11.776-13.824 18.432-16.384 16.384-4.608 34.816 4.608 41.984 20.992 20.992 76.8 6.656 160.768-49.152 223.744zM777.728 446.464c13.824-4.608 30.208 2.56 34.816 18.432 11.776 37.376 4.608 76.8-23.552 107.52S721.92 614.4 684.544 607.744c-16.384-2.56-25.6-18.432-20.992-32.768 2.56-16.384 18.432-25.6 32.768-20.992 18.432 4.608 37.376-2.56 51.2-16.384s16.384-34.816 11.776-53.76c-5.12-16.384 4.608-32.768 18.432-37.376zM721.92 392.704c-11.776 4.608-20.992 7.168-13.824 20.992 13.824 34.816 13.824 65.536 0 86.528-28.16 39.424-104.96 37.376-191.488 0 0 0-28.16-11.776-20.992 9.216 13.824 44.544 11.776 79.36-9.216 100.352-46.592 46.592-172.544-2.56-280.064-109.568-79.36-81.92-125.952-165.888-125.952-240.64 0-142.336 182.272-228.864 359.424-228.864 233.472 0 387.584 135.168 387.584 242.688-0.512 66.048-56.832 102.912-105.472 119.296z m-282.624-310.272c-142.336-13.824-263.68 51.2-272.896 142.336-9.216 93.184 97.792 179.712 240.64 193.536s263.68-51.2 272.896-142.336c9.216-93.184-98.304-179.712-240.64-193.536zM453.12 348.672c-67.584 18.432-144.896-16.384-172.544-74.752-30.208-60.928 0-128.512 67.584-149.504 70.144-23.552 154.112 11.776 182.272 76.8 27.648 63.488-7.168 128.512-77.312 147.456z m-51.2-156.672c-13.824-20.992-41.984-32.768-65.536-20.992-20.992 9.216-28.16 34.816-13.824 55.808 13.824 20.992 41.984 30.208 62.976 20.992 23.552-6.656 30.208-32.256 16.384-55.808z"  horiz-adv-x="1024" />

    
    <glyph glyph-name="LiRa_twitter" unicode="&#58892;" d="M851.456 541.184c0 8.192 0 15.872-0.512 23.552 34.304 25.6 64 57.344 87.04 93.696-31.744-14.336-65.536-23.552-100.352-27.648 36.352 22.016 64 57.856 76.8 100.352-33.792-20.48-71.168-35.328-111.104-43.008-31.744 36.352-77.312 59.392-127.488 60.416-96.768 1.536-174.592-79.872-174.592-182.272 0-14.336 1.536-28.672 4.608-41.984C360.448 533.504 231.424 609.28 145.408 723.456 130.56 696.32 121.856 664.064 121.856 629.76c0-64.512 30.72-122.368 77.824-156.16-28.672 1.536-55.808 10.24-79.36 24.064v-2.56c0-90.624 60.416-166.4 140.288-183.808-14.848-4.096-30.208-6.144-46.08-6.144-11.264 0-22.016 1.024-32.768 3.584 22.016-74.24 87.04-128.512 163.328-130.048-59.904-49.664-135.168-79.36-217.088-78.848-14.336 0-28.16 1.024-41.984 2.56 77.312-53.248 169.472-83.968 267.776-83.968 321.536 0.512 497.664 280.064 497.664 522.752z"  horiz-adv-x="1024" />

    
    <glyph glyph-name="LiRa_wechat" unicode="&#58893;" d="M459.264 277.504c0-109.056 107.52-197.12 239.104-197.12 31.744 0 62.976 5.12 90.624 14.336 7.68-3.584 62.464-51.2 74.752-42.496 8.192 6.656-19.968 57.856-22.016 67.072 58.88 35.84 96.768 92.672 96.768 157.696 0 109.056-107.52 197.12-239.104 197.12s-240.128-87.552-240.128-196.608z m289.28 70.144a34.304 34.304 0 1 0 34.304-34.304c-18.944-0.512-34.304 15.36-34.304 34.304z m-168.448 0a34.304 34.304 0 1 0 34.304-34.304c-18.944-0.512-34.816 15.36-34.304 34.304zM437.76 279.04c0 118.784 117.248 215.04 261.12 215.04 7.68 0 15.36 0 22.016-0.512C705.024 625.152 570.368 727.04 406.528 727.04c-174.592 0-315.904-116.736-315.904-260.608 0-85.504 50.176-161.28 126.976-208.896-3.072-11.264-39.424-79.36-29.184-88.576 15.872-10.752 88.576 51.712 98.304 56.32 36.352-12.8 76.8-19.968 119.808-19.968 15.36 0 30.72 0.512 45.568 3.072-9.728 23.04-14.336 46.592-14.336 70.656zM517.12 604.16c25.088 0 45.568-20.48 45.568-45.568 0.512-25.088-19.968-45.568-45.568-45.568-25.088 0-45.568 20.48-45.568 45.568S491.52 604.16 517.12 604.16zM295.424 513.024c-25.088 0-45.568 20.48-45.568 45.568s20.48 45.568 45.568 45.568 45.568-20.48 45.568-45.568-20.48-45.568-45.568-45.568z"  horiz-adv-x="1024" />

    
    <glyph glyph-name="LiRa_shopping1" unicode="&#59132;" d="M348.672-56.32c-44.032 0-80.384 35.84-80.384 80.384s35.84 80.384 80.384 80.384 80.384-35.84 80.384-80.384S392.704-56.32 348.672-56.32z m435.712 0c-44.032 0-80.384 35.84-80.384 80.384s35.84 80.384 80.384 80.384 80.384-35.84 80.384-80.384-36.352-80.384-80.384-80.384z m155.136 650.752l-72.192-268.288c-5.632-23.552-28.16-39.936-51.712-39.936H409.6v-1.536c-0.512-5.12-2.048-11.264-5.12-15.36l-29.184-51.712H803.84c22.016 0 40.448-17.408 40.448-40.448 0-22.016-17.408-40.448-40.448-40.448H308.224c-11.264 0-21.504 5.12-29.184 12.288-8.192 8.192-11.264 18.432-11.264 30.208-0.512 8.192 1.536 15.36 5.12 23.04l48.64 84.48-7.168 28.16c-1.536 3.072-3.072 6.656-3.584 10.24L238.592 593.92c-1.536 3.584-1.536 7.168-1.536 11.264l-30.72 115.712-94.208 25.088c-21.504 5.632-33.792 28.16-28.16 49.152 5.12 21.504 28.16 33.792 48.64 28.672l116.224-30.72c14.848-4.608 25.6-15.36 28.672-30.72 0.512-1.536 0.512-2.048 1.536-3.584l25.6-96.256h583.168c16.896 0 32.256-8.192 42.496-21.504 10.752-14.336 14.336-30.208 9.216-46.592z"  horiz-adv-x="1024" />

    
    </font>
</defs>
</svg>
